<?xml version="1.0" encoding="UTF-8"?>
<!DOCTYPE svg PUBLIC "-//W3C//DTD SVG 1.1//EN" "http://www.w3.org/Graphics/SVG/1.1/DTD/svg11.dtd">
<svg xmlns="http://www.w3.org/2000/svg" version="1.1" width="512px" height="512px" style="shape-rendering:geometricPrecision; text-rendering:geometricPrecision; image-rendering:optimizeQuality; fill-rule:evenodd; clip-rule:evenodd" xmlns:xlink="http://www.w3.org/1999/xlink">
<g><path style="opacity:1" fill="#97b362" d="M 309.5,10.5 C 309.5,11.1667 309.5,11.8333 309.5,12.5C 309.5,52.5 309.5,92.5 309.5,132.5C 308.833,132.167 308.167,131.833 307.5,131.5C 281.672,130.502 255.672,130.169 229.5,130.5C 229.5,89.5 229.5,48.5 229.5,7.5C 230.791,7.73731 231.791,7.40397 232.5,6.5C 258.308,4.30745 283.974,5.64078 309.5,10.5 Z"/></g>
<g><path style="opacity:0.588" fill="#a637c3" d="M 309.5,10.5 C 311.306,11.0241 312.972,11.6908 314.5,12.5C 312.833,12.5 311.167,12.5 309.5,12.5C 309.5,11.8333 309.5,11.1667 309.5,10.5 Z"/></g>
<g><path style="opacity:1" fill="#92b05a" d="M 309.5,12.5 C 311.167,12.5 312.833,12.5 314.5,12.5C 327.441,14.9254 339.774,18.9254 351.5,24.5C 349.505,73.4887 348.838,122.822 349.5,172.5C 335.833,159.5 322.5,146.167 309.5,132.5C 309.5,92.5 309.5,52.5 309.5,12.5 Z"/></g>
<g><path style="opacity:1" fill="#a4be73" d="M 202.5,10.5 C 201.713,12.1042 200.38,12.7709 198.5,12.5C 198.5,174.5 198.5,336.5 198.5,498.5C 201.067,498.721 203.401,499.388 205.5,500.5C 200.675,500.126 196.008,499.126 191.5,497.5C 190.295,495.862 188.962,495.529 187.5,496.5C 180.216,494.739 173.216,492.405 166.5,489.5C 167.5,333.334 167.833,177.001 167.5,20.5C 178.942,16.3893 190.609,13.056 202.5,10.5 Z"/></g>
<g><path style="opacity:1" fill="#a9c279" d="M 167.5,20.5 C 167.833,177.001 167.5,333.334 166.5,489.5C 157.953,486.891 149.953,483.225 142.5,478.5C 141,476.821 139.167,475.488 137,474.5C 136.5,328.5 136.333,182.5 136.5,36.5C 138.23,35.9744 139.564,34.9744 140.5,33.5C 149.038,28.3989 158.038,24.0655 167.5,20.5 Z"/></g>
<g><path style="opacity:1" fill="#8faf54" d="M 351.5,24.5 C 358.923,27.0455 365.923,30.3788 372.5,34.5C 373.006,36.1054 373.673,36.4387 374.5,35.5C 376.819,35.9925 378.819,36.9925 380.5,38.5C 381.382,40.3838 382.882,41.7171 385,42.5C 385.399,42.2716 385.565,41.9382 385.5,41.5C 386.167,41.5 386.5,41.8333 386.5,42.5C 386.973,43.9063 387.973,44.573 389.5,44.5C 390.492,44.3284 391.158,44.6618 391.5,45.5C 391.167,45.5 390.833,45.5 390.5,45.5C 389.501,100.998 389.168,156.664 389.5,212.5C 375.833,199.5 362.5,186.167 349.5,172.5C 348.838,122.822 349.505,73.4887 351.5,24.5 Z"/></g>
<g><path style="opacity:0.196" fill="#8d1cec" d="M 372.5,34.5 C 373.492,34.3284 374.158,34.6618 374.5,35.5C 373.673,36.4387 373.006,36.1054 372.5,34.5 Z"/></g>
<g><path style="opacity:0.996" fill="#8279be" d="M 140.5,33.5 C 139.564,34.9744 138.23,35.9744 136.5,36.5C 135.292,37.2341 133.959,37.5674 132.5,37.5C 134.849,35.659 137.515,34.3257 140.5,33.5 Z"/></g>
<g><path style="opacity:0.996" fill="#9e7fb0" d="M 380.5,38.5 C 382.368,39.2632 384.035,40.2632 385.5,41.5C 385.565,41.9382 385.399,42.2716 385,42.5C 382.882,41.7171 381.382,40.3838 380.5,38.5 Z"/></g>
<g><path style="opacity:0.078" fill="#943fc6" d="M 386.5,42.5 C 388.027,42.427 389.027,43.0937 389.5,44.5C 387.973,44.573 386.973,43.9063 386.5,42.5 Z"/></g>
<g><path style="opacity:1" fill="#afc780" d="M 136.5,36.5 C 136.333,182.5 136.5,328.5 137,474.5C 139.167,475.488 141,476.821 142.5,478.5C 131.497,474.006 121.497,468.006 112.5,460.5C 112.027,459.094 111.027,458.427 109.5,458.5C 105.808,456.656 102.475,454.323 99.5,451.5C 100.167,451.5 100.5,451.167 100.5,450.5C 100.833,319.999 100.5,189.666 99.5,59.5C 109.603,50.9395 120.603,43.6062 132.5,37.5C 133.959,37.5674 135.292,37.2341 136.5,36.5 Z"/></g>
<g><path style="opacity:0.435" fill="#a162d7" d="M 390.5,45.5 C 390.833,45.5 391.167,45.5 391.5,45.5C 392.492,45.3284 393.158,45.6618 393.5,46.5C 393.565,46.9382 393.399,47.2716 393,47.5C 392.005,46.9341 391.172,46.2674 390.5,45.5 Z"/></g>
<g><path style="opacity:1" fill="#8bad4e" d="M 390.5,45.5 C 391.172,46.2674 392.005,46.9341 393,47.5C 393.399,47.2716 393.565,46.9382 393.5,46.5C 396.871,48.8458 400.204,51.1792 403.5,53.5C 403.062,53.4346 402.728,53.6012 402.5,54C 403.244,55.0386 404.244,55.5386 405.5,55.5C 414.046,60.7077 421.713,67.041 428.5,74.5C 430.427,77.7673 432.761,80.7673 435.5,83.5C 435.5,141.833 435.5,200.167 435.5,258.5C 424.833,248.167 414.167,237.833 403.5,227.5C 398.833,222.5 394.167,217.5 389.5,212.5C 389.168,156.664 389.501,100.998 390.5,45.5 Z"/></g>
<g><path style="opacity:0.149" fill="#5f2ba3" d="M 403.5,53.5 C 404.5,53.8333 405.167,54.5 405.5,55.5C 404.244,55.5386 403.244,55.0386 402.5,54C 402.728,53.6012 403.062,53.4346 403.5,53.5 Z"/></g>
<g><path style="opacity:1" fill="#b5cd88" d="M 99.5,59.5 C 100.5,189.666 100.833,319.999 100.5,450.5C 99.609,449.89 98.609,449.557 97.5,449.5C 72.3892,430.064 52.3892,406.397 37.5,378.5C 38.8333,296.5 38.8333,214.5 37.5,132.5C 53.0382,103.95 73.7049,79.6165 99.5,59.5 Z"/></g>
<g><path style="opacity:0.075" fill="#b15da1" d="M 428.5,74.5 C 432.167,77.5 435.5,80.8333 438.5,84.5C 437.391,84.4431 436.391,84.1098 435.5,83.5C 432.761,80.7673 430.427,77.7673 428.5,74.5 Z"/></g>
<g><path style="opacity:1" fill="#88aa47" d="M 435.5,83.5 C 436.391,84.1098 437.391,84.4431 438.5,84.5C 450.001,96.3354 460.001,109.335 468.5,123.5C 467.957,123.56 467.624,123.893 467.5,124.5C 468.919,126.336 470.086,128.336 471,130.5C 471.399,130.272 471.565,129.938 471.5,129.5C 473.25,130.659 474.25,132.326 474.5,134.5C 474.461,137.089 475.461,139.089 477.5,140.5C 487.97,158.899 495.303,178.565 499.5,199.5C 498.285,200.779 498.618,201.779 500.5,202.5C 505.86,230.814 506.86,259.148 503.5,287.5C 502.652,289.08 501.985,291.413 501.5,294.5C 501.624,295.107 501.957,295.44 502.5,295.5C 501.963,300.186 501.296,304.853 500.5,309.5C 498.149,311.841 497.149,314.841 497.5,318.5C 496.883,318.611 496.383,318.944 496,319.5C 475.965,299.298 455.799,279.298 435.5,259.5C 435.5,259.167 435.5,258.833 435.5,258.5C 435.5,200.167 435.5,141.833 435.5,83.5 Z"/></g>
<g><path style="opacity:0.996" fill="#8d64ae" d="M 468.5,123.5 C 470.025,125.216 471.025,127.216 471.5,129.5C 471.565,129.938 471.399,130.272 471,130.5C 470.086,128.336 468.919,126.336 467.5,124.5C 467.624,123.893 467.957,123.56 468.5,123.5 Z"/></g>
<g><path style="opacity:1" fill="#fefefe" d="M 229.5,130.5 C 255.672,130.169 281.672,130.502 307.5,131.5C 307.5,214.5 307.5,297.5 307.5,380.5C 285.5,380.5 263.5,380.5 241.5,380.5C 240.501,328.336 240.168,276.003 240.5,223.5C 240.5,211.5 240.5,199.5 240.5,187.5C 228.5,187.5 216.5,187.5 204.5,187.5C 203.503,168.674 203.17,149.674 203.5,130.5C 212.167,130.5 220.833,130.5 229.5,130.5 Z"/></g>
<g><path style="opacity:0.627" fill="#b94ecd" d="M 474.5,134.5 C 476.008,136.181 477.008,138.181 477.5,140.5C 475.461,139.089 474.461,137.089 474.5,134.5 Z"/></g>
<g><path style="opacity:1" fill="#bdd291" d="M 37.5,132.5 C 38.8333,214.5 38.8333,296.5 37.5,378.5C 30.7777,367.053 25.111,355.053 20.5,342.5C 21.4709,341.038 21.1376,339.705 19.5,338.5C 15.9846,330.943 13.6513,322.943 12.5,314.5C 12.8294,311.772 12.1628,309.438 10.5,307.5C -2.00971,245.726 6.99029,187.392 37.5,132.5 Z"/></g>
<g><path style="opacity:1" fill="#9eb96d" d="M 232.5,6.5 C 231.791,7.40397 230.791,7.73731 229.5,7.5C 229.5,48.5 229.5,89.5 229.5,130.5C 220.833,130.5 212.167,130.5 203.5,130.5C 203.17,149.674 203.503,168.674 204.5,187.5C 216.167,199.833 228.167,211.833 240.5,223.5C 240.168,276.003 240.501,328.336 241.5,380.5C 242.167,381.5 242.833,382.5 243.5,383.5C 242.501,423.997 242.168,464.663 242.5,505.5C 229.847,505.206 217.513,503.539 205.5,500.5C 203.401,499.388 201.067,498.721 198.5,498.5C 198.5,336.5 198.5,174.5 198.5,12.5C 200.38,12.7709 201.713,12.1042 202.5,10.5C 212.383,8.32628 222.383,6.99294 232.5,6.5 Z"/></g>
<g><path style="opacity:1" fill="#738263" d="M 204.5,187.5 C 216.5,187.5 228.5,187.5 240.5,187.5C 240.5,199.5 240.5,211.5 240.5,223.5C 228.167,211.833 216.167,199.833 204.5,187.5 Z"/></g>
<g><path style="opacity:1" fill="#718259" d="M 307.5,131.5 C 308.167,131.833 308.833,132.167 309.5,132.5C 322.5,146.167 335.833,159.5 349.5,172.5C 362.5,186.167 375.833,199.5 389.5,212.5C 394.167,217.5 398.833,222.5 403.5,227.5C 391.535,239.965 379.369,252.298 367,264.5C 366.667,254.167 366.333,243.833 366,233.5C 360.297,239.035 354.797,244.702 349.5,250.5C 338.202,261.298 327.035,272.298 316,283.5C 315.667,273.167 315.333,262.833 315,252.5C 313,254.5 311,256.5 309,258.5C 308.833,299.335 308.333,340.002 307.5,380.5C 307.5,297.5 307.5,214.5 307.5,131.5 Z"/></g>
<g><path style="opacity:0.98" fill="#8240ae" d="M 499.5,199.5 C 500.11,200.391 500.443,201.391 500.5,202.5C 498.618,201.779 498.285,200.779 499.5,199.5 Z"/></g>
<g><path style="opacity:1" fill="#748755" d="M 403.5,227.5 C 414.167,237.833 424.833,248.167 435.5,258.5C 435.5,258.833 435.5,259.167 435.5,259.5C 433.949,262.563 431.782,265.229 429,267.5C 428.667,301.833 428.333,336.167 428,370.5C 424,374.5 420,378.5 416,382.5C 415.774,401.503 416.108,420.503 417,439.5C 431.695,424.471 446.695,409.804 462,395.5C 462.399,395.728 462.565,396.062 462.5,396.5C 433.679,438.981 395.346,469.647 347.5,488.5C 340.891,480.554 333.891,472.887 326.5,465.5C 334.132,458.369 341.632,451.036 349,443.5C 349.5,379.168 349.667,314.834 349.5,250.5C 354.797,244.702 360.297,239.035 366,233.5C 366.333,243.833 366.667,254.167 367,264.5C 379.369,252.298 391.535,239.965 403.5,227.5 Z"/></g>
<g><path style="opacity:1" fill="#758659" d="M 349.5,250.5 C 349.667,314.834 349.5,379.168 349,443.5C 341.632,451.036 334.132,458.369 326.5,465.5C 298.833,438.167 271.167,410.833 243.5,383.5C 242.833,382.5 242.167,381.5 241.5,380.5C 263.5,380.5 285.5,380.5 307.5,380.5C 308.333,340.002 308.833,299.335 309,258.5C 311,256.5 313,254.5 315,252.5C 315.333,262.833 315.667,273.167 316,283.5C 327.035,272.298 338.202,261.298 349.5,250.5 Z"/></g>
<g><path style="opacity:1" fill="#73874f" d="M 435.5,259.5 C 455.799,279.298 475.965,299.298 496,319.5C 496.383,318.944 496.883,318.611 497.5,318.5C 490.686,346.785 479.02,372.785 462.5,396.5C 462.565,396.062 462.399,395.728 462,395.5C 446.695,409.804 431.695,424.471 417,439.5C 416.108,420.503 415.774,401.503 416,382.5C 420,378.5 424,374.5 428,370.5C 428.333,336.167 428.667,301.833 429,267.5C 431.782,265.229 433.949,262.563 435.5,259.5 Z"/></g>
<g><path style="opacity:0.047" fill="#7b66ad" d="M 503.5,287.5 C 503.721,290.279 503.388,292.946 502.5,295.5C 501.957,295.44 501.624,295.107 501.5,294.5C 501.985,291.413 502.652,289.08 503.5,287.5 Z"/></g>
<g><path style="opacity:0.812" fill="#725294" d="M 10.5,307.5 C 12.1628,309.438 12.8294,311.772 12.5,314.5C 11.3882,312.401 10.7215,310.067 10.5,307.5 Z"/></g>
<g><path style="opacity:0.843" fill="#5e75b9" d="M 500.5,309.5 C 499.64,312.632 498.64,315.632 497.5,318.5C 497.149,314.841 498.149,311.841 500.5,309.5 Z"/></g>
<g><path style="opacity:0.631" fill="#8a3fde" d="M 19.5,338.5 C 21.1376,339.705 21.4709,341.038 20.5,342.5C 19.7659,341.292 19.4326,339.959 19.5,338.5 Z"/></g>
<g><path style="opacity:1" fill="#96b262" d="M 243.5,383.5 C 271.167,410.833 298.833,438.167 326.5,465.5C 333.891,472.887 340.891,480.554 347.5,488.5C 313.796,501.839 278.796,507.506 242.5,505.5C 242.168,464.663 242.501,423.997 243.5,383.5 Z"/></g>
<g><path style="opacity:0.831" fill="#a53bc6" d="M 97.5,449.5 C 98.609,449.557 99.609,449.89 100.5,450.5C 100.5,451.167 100.167,451.5 99.5,451.5C 98.5,451.167 97.8333,450.5 97.5,449.5 Z"/></g>
<g><path style="opacity:0.639" fill="#8340d3" d="M 109.5,458.5 C 111.027,458.427 112.027,459.094 112.5,460.5C 110.973,460.573 109.973,459.906 109.5,458.5 Z"/></g>
<g><path style="opacity:0.533" fill="#d840c5" d="M 187.5,496.5 C 188.962,495.529 190.295,495.862 191.5,497.5C 190.041,497.567 188.708,497.234 187.5,496.5 Z"/></g>
</svg>
