<?xml version="1.0" encoding="UTF-8"?>
<!DOCTYPE svg PUBLIC "-//W3C//DTD SVG 1.1//EN" "http://www.w3.org/Graphics/SVG/1.1/DTD/svg11.dtd">
<svg xmlns="http://www.w3.org/2000/svg" version="1.1" width="512px" height="512px" style="shape-rendering:geometricPrecision; text-rendering:geometricPrecision; image-rendering:optimizeQuality; fill-rule:evenodd; clip-rule:evenodd" xmlns:xlink="http://www.w3.org/1999/xlink">
<g><path style="opacity:1" fill="#c1d895" d="M 455.5,105.5 C 456.136,107.795 457.469,109.461 459.5,110.5C 494.906,160.775 510.073,216.775 505,278.5C 503.684,292.731 501.184,306.731 497.5,320.5C 434.167,257.5 370.833,194.5 307.5,131.5C 273.004,130.502 238.337,130.168 203.5,130.5C 203.17,149.674 203.503,168.674 204.5,187.5C 216.167,199.833 228.167,211.833 240.5,223.5C 240.168,276.003 240.501,328.336 241.5,380.5C 276.632,416.132 311.965,451.632 347.5,487C 346.833,487.333 346.167,487.667 345.5,488C 345.728,488.399 346.062,488.565 346.5,488.5C 302.591,505.724 257.258,510.224 210.5,502C 194.303,499.202 178.636,494.702 163.5,488.5C 162.685,487.163 161.518,486.163 160,485.5C 159.601,485.728 159.435,486.062 159.5,486.5C 98.1186,460.62 53.6186,417.287 26,356.5C 19.9903,342.971 15.4903,328.971 12.5,314.5C 12.8294,311.772 12.1628,309.438 10.5,307.5C -6.1621,214.66 19.1712,135.494 86.5,70C 105.599,52.7361 126.933,38.9028 150.5,28.5C 152.179,28.7148 153.179,28.0481 153.5,26.5C 209.77,2.83155 267.437,-1.00178 326.5,15C 374.927,29.6146 415.427,56.1146 448,94.5C 451.015,97.8777 453.515,101.544 455.5,105.5 Z"/></g>
<g><path style="opacity:0.984" fill="#a94cc3" d="M 153.5,26.5 C 153.179,28.0481 152.179,28.7148 150.5,28.5C 151.29,27.5987 152.29,26.9321 153.5,26.5 Z"/></g>
<g><path style="opacity:0.8" fill="#94628b" d="M 455.5,105.5 C 457.543,106.579 458.876,108.246 459.5,110.5C 457.469,109.461 456.136,107.795 455.5,105.5 Z"/></g>
<g><path style="opacity:1" fill="#fefefe" d="M 307.5,131.5 C 307.5,214.5 307.5,297.5 307.5,380.5C 285.5,380.5 263.5,380.5 241.5,380.5C 240.501,328.336 240.168,276.003 240.5,223.5C 240.5,211.5 240.5,199.5 240.5,187.5C 228.5,187.5 216.5,187.5 204.5,187.5C 203.503,168.674 203.17,149.674 203.5,130.5C 238.337,130.168 273.004,130.502 307.5,131.5 Z"/></g>
<g><path style="opacity:1" fill="#839078" d="M 307.5,131.5 C 370.833,194.5 434.167,257.5 497.5,320.5C 475.04,397.459 427.373,452.626 354.5,486C 351.904,487.136 349.237,487.969 346.5,488.5C 346.062,488.565 345.728,488.399 345.5,488C 346.167,487.667 346.833,487.333 347.5,487C 311.965,451.632 276.632,416.132 241.5,380.5C 263.5,380.5 285.5,380.5 307.5,380.5C 307.5,297.5 307.5,214.5 307.5,131.5 Z"/></g>
<g><path style="opacity:1" fill="#839078" d="M 204.5,187.5 C 216.5,187.5 228.5,187.5 240.5,187.5C 240.5,199.5 240.5,211.5 240.5,223.5C 228.167,211.833 216.167,199.833 204.5,187.5 Z"/></g>
<g><path style="opacity:0.247" fill="#895da7" d="M 10.5,307.5 C 12.1628,309.438 12.8294,311.772 12.5,314.5C 11.3882,312.401 10.7215,310.067 10.5,307.5 Z"/></g>
<g><path style="opacity:0.098" fill="#ba54c0" d="M 163.5,488.5 C 161.847,488.34 160.514,487.674 159.5,486.5C 159.435,486.062 159.601,485.728 160,485.5C 161.518,486.163 162.685,487.163 163.5,488.5 Z"/></g>
</svg>
