<?xml version="1.0" encoding="UTF-8"?>
<!DOCTYPE svg PUBLIC "-//W3C//DTD SVG 1.1//EN" "http://www.w3.org/Graphics/SVG/1.1/DTD/svg11.dtd">
<svg xmlns="http://www.w3.org/2000/svg" version="1.1" width="512px" height="512px" style="shape-rendering:geometricPrecision; text-rendering:geometricPrecision; image-rendering:optimizeQuality; fill-rule:evenodd; clip-rule:evenodd" xmlns:xlink="http://www.w3.org/1999/xlink">
<g><path style="opacity:1" fill="#a4c95c" d="M 237.5,5.5 C 277.664,2.97198 316.331,9.30531 353.5,24.5C 353.265,25.0967 352.765,25.4301 352,25.5C 349.65,24.4958 347.316,23.4958 345,22.5C 344.5,73.1656 344.333,123.832 344.5,174.5C 339.833,170.167 335.167,165.833 330.5,161.5C 313.367,141.099 291.367,129.932 264.5,128C 254.811,127.307 245.144,127.473 235.5,128.5C 234.848,87.2805 235.515,46.2805 237.5,5.5 Z"/></g>
<g><path style="opacity:1" fill="#abcc6b" d="M 237.5,5.5 C 235.515,46.2805 234.848,87.2805 235.5,128.5C 209.445,132.674 189.778,146.008 176.5,168.5C 175.174,118.294 175.174,67.9607 176.5,17.5C 180.397,16.0901 184.397,15.0901 188.5,14.5C 188.435,14.9382 188.601,15.2716 189,15.5C 189.995,14.9341 190.828,14.2674 191.5,13.5C 206.539,9.32668 221.872,6.66001 237.5,5.5 Z"/></g>
<g><path style="opacity:0.988" fill="#813183" d="M 191.5,13.5 C 190.828,14.2674 189.995,14.9341 189,15.5C 188.601,15.2716 188.435,14.9382 188.5,14.5C 189.209,13.596 190.209,13.2627 191.5,13.5 Z"/></g>
<g><path style="opacity:1" fill="#aece71" d="M 176.5,17.5 C 175.174,67.9607 175.174,118.294 176.5,168.5C 168.587,183.724 165.587,199.724 167.5,216.5C 189.167,238.833 211.167,260.833 233.5,282.5C 210.962,311.54 187.462,339.874 163,367.5C 162.183,373.016 162.349,378.35 163.5,383.5C 177.167,397.5 190.833,411.5 204.5,425.5C 203.833,437.662 203.5,449.995 203.5,462.5C 203.519,475.39 204.186,488.057 205.5,500.5C 198.004,499.459 190.671,497.792 183.5,495.5C 182.365,493.787 180.698,493.12 178.5,493.5C 167.878,490.853 157.878,486.853 148.5,481.5C 148.5,330.833 148.5,180.167 148.5,29.5C 157.351,24.5438 166.684,20.5438 176.5,17.5 Z"/></g>
<g><path style="opacity:1" fill="#a0c854" d="M 353.5,24.5 C 362.692,28.9281 371.692,33.5948 380.5,38.5C 379.262,38.81 379.262,39.31 380.5,40C 381.437,40.6917 382.103,40.525 382.5,39.5C 390.742,44.0866 398.409,49.4199 405.5,55.5C 409.141,58.9683 412.974,62.3016 417,65.5C 417.399,65.2716 417.565,64.9382 417.5,64.5C 421.397,67.6092 425.064,70.9426 428.5,74.5C 431.806,79.498 436.139,84.1646 441.5,88.5C 453.392,100.395 463.392,113.728 471.5,128.5C 470.287,129.497 470.454,130.497 472,131.5C 472.399,131.272 472.565,130.938 472.5,130.5C 486.556,153.661 495.89,178.661 500.5,205.5C 500.338,207.527 500.505,209.527 501,211.5C 501.383,212.056 501.883,212.389 502.5,212.5C 506.637,241.852 506.471,271.186 502,300.5C 500.431,309.442 498.264,318.109 495.5,326.5C 475.167,305.5 454.5,284.833 433.5,264.5C 403.833,234.5 374.167,204.5 344.5,174.5C 344.333,123.832 344.5,73.1656 345,22.5C 347.316,23.4958 349.65,24.4958 352,25.5C 352.765,25.4301 353.265,25.0967 353.5,24.5 Z"/></g>
<g><path style="opacity:1" fill="#b2d079" d="M 148.5,29.5 C 148.5,180.167 148.5,330.833 148.5,481.5C 138.686,477.764 129.686,472.764 121.5,466.5C 121.5,325.833 121.5,185.167 121.5,44.5C 129.729,38.2162 138.729,33.2162 148.5,29.5 Z"/></g>
<g><path style="opacity:0.224" fill="#7f4990" d="M 380.5,38.5 C 381.167,38.8333 381.833,39.1667 382.5,39.5C 382.103,40.525 381.437,40.6917 380.5,40C 379.262,39.31 379.262,38.81 380.5,38.5 Z"/></g>
<g><path style="opacity:1" fill="#b6d280" d="M 121.5,44.5 C 121.5,185.167 121.5,325.833 121.5,466.5C 119.847,466.34 118.514,465.674 117.5,464.5C 118.738,464.19 118.738,463.69 117.5,463C 116.069,462.535 114.903,461.701 114,460.5C 113.601,460.728 113.435,461.062 113.5,461.5C 105.236,456.233 97.5691,450.233 90.5,443.5C 89.3371,318.873 89.1704,194.207 90,69.5C 91.0386,68.7562 91.5386,67.7562 91.5,66.5C 96.3492,61.489 101.683,56.989 107.5,53C 111.807,49.5168 116.473,46.6834 121.5,44.5 Z"/></g>
<g><path style="opacity:0.255" fill="#b7a4a7" d="M 405.5,55.5 C 410.071,57.7376 414.071,60.7376 417.5,64.5C 417.565,64.9382 417.399,65.2716 417,65.5C 412.974,62.3016 409.141,58.9683 405.5,55.5 Z"/></g>
<g><path style="opacity:0.871" fill="#a8a2ae" d="M 428.5,74.5 C 433.562,78.5593 437.895,83.226 441.5,88.5C 436.139,84.1646 431.806,79.498 428.5,74.5 Z"/></g>
<g><path style="opacity:1" fill="#bad488" d="M 91.5,66.5 C 91.5386,67.7562 91.0386,68.7562 90,69.5C 89.1704,194.207 89.3371,318.873 90.5,443.5C 79.4613,434.795 69.7946,424.795 61.5,413.5C 61.9382,413.565 62.2716,413.399 62.5,413C 60.9512,411.786 59.7845,410.286 59,408.5C 58.31,407.262 57.81,407.262 57.5,408.5C 51.7255,401.72 46.7255,394.387 42.5,386.5C 42.2503,384.326 41.2503,382.659 39.5,381.5C 38.5116,380.205 37.5116,378.872 36.5,377.5C 37.7152,376.221 37.3818,375.221 35.5,374.5C 34.6618,374.158 34.3284,373.492 34.5,372.5C 35.1638,333.57 35.4971,294.57 35.5,255.5C 35.4999,216.494 34.8332,177.828 33.5,139.5C 44.1495,118.861 57.4828,100.194 73.5,83.5C 75.5441,82.9688 77.2107,81.8022 78.5,80C 78.2716,79.6012 77.9382,79.4346 77.5,79.5C 81.539,74.46 86.2056,70.1266 91.5,66.5 Z"/></g>
<g><path style="opacity:0.827" fill="#ca73b3" d="M 77.5,79.5 C 77.9382,79.4346 78.2716,79.6012 78.5,80C 77.2107,81.8022 75.5441,82.9688 73.5,83.5C 74.5,81.8333 75.8333,80.5 77.5,79.5 Z"/></g>
<g><path style="opacity:1" fill="#fefefe" d="M 330.5,161.5 C 344.202,183.968 347.369,207.968 340,233.5C 335.248,247.003 328.915,259.67 321,271.5C 307.888,289.381 294.055,306.714 279.5,323.5C 302.49,324.5 325.49,324.833 348.5,324.5C 348.5,344.167 348.5,363.833 348.5,383.5C 286.833,383.5 225.167,383.5 163.5,383.5C 162.349,378.35 162.183,373.016 163,367.5C 187.462,339.874 210.962,311.54 233.5,282.5C 245.859,268.801 257.026,254.134 267,238.5C 274.541,227.223 277.541,214.889 276,201.5C 270.983,189.741 262.15,184.908 249.5,187C 236.123,192.245 230.457,202.078 232.5,216.5C 210.833,216.5 189.167,216.5 167.5,216.5C 165.587,199.724 168.587,183.724 176.5,168.5C 189.778,146.008 209.445,132.674 235.5,128.5C 245.144,127.473 254.811,127.307 264.5,128C 291.367,129.932 313.367,141.099 330.5,161.5 Z"/></g>
<g><path style="opacity:0.992" fill="#b060bc" d="M 471.5,128.5 C 471.833,129.167 472.167,129.833 472.5,130.5C 472.565,130.938 472.399,131.272 472,131.5C 470.454,130.497 470.287,129.497 471.5,128.5 Z"/></g>
<g><path style="opacity:1" fill="#bed491" d="M 33.5,139.5 C 34.8332,177.828 35.4999,216.494 35.5,255.5C 35.4971,294.57 35.1638,333.57 34.5,372.5C 28.7768,363.05 24.1101,353.05 20.5,342.5C 21.4709,341.038 21.1376,339.705 19.5,338.5C 7.16229,304.315 2.66229,268.982 6,232.5C 8.81391,199.569 17.9806,168.569 33.5,139.5 Z"/></g>
<g><path style="opacity:1" fill="#7a8d5f" d="M 233.5,282.5 C 211.167,260.833 189.167,238.833 167.5,216.5C 189.167,216.5 210.833,216.5 232.5,216.5C 230.457,202.078 236.123,192.245 249.5,187C 262.15,184.908 270.983,189.741 276,201.5C 277.541,214.889 274.541,227.223 267,238.5C 257.026,254.134 245.859,268.801 233.5,282.5 Z"/></g>
<g><path style="opacity:0.851" fill="#988ac6" d="M 500.5,205.5 C 501.407,207.657 502.073,209.99 502.5,212.5C 501.883,212.389 501.383,212.056 501,211.5C 500.505,209.527 500.338,207.527 500.5,205.5 Z"/></g>
<g><path style="opacity:1" fill="#7e935a" d="M 330.5,161.5 C 335.167,165.833 339.833,170.167 344.5,174.5C 374.167,204.5 403.833,234.5 433.5,264.5C 416.202,282.299 398.702,299.965 381,317.5C 380.667,306.167 380.333,294.833 380,283.5C 373.333,290.167 366.667,296.833 360,303.5C 359.667,349.167 359.333,394.833 359,440.5C 350,449.5 341,458.5 332,467.5C 331.5,476.16 331.334,484.827 331.5,493.5C 329.599,493.246 328.933,493.58 329.5,494.5C 313.382,499.99 296.715,503.324 279.5,504.5C 280.263,503.732 281.263,503.232 282.5,503C 256.632,476.965 230.632,451.132 204.5,425.5C 190.833,411.5 177.167,397.5 163.5,383.5C 225.167,383.5 286.833,383.5 348.5,383.5C 348.5,363.833 348.5,344.167 348.5,324.5C 325.49,324.833 302.49,324.5 279.5,323.5C 294.055,306.714 307.888,289.381 321,271.5C 328.915,259.67 335.248,247.003 340,233.5C 347.369,207.968 344.202,183.968 330.5,161.5 Z"/></g>
<g><path style="opacity:1" fill="#809556" d="M 433.5,264.5 C 454.5,284.833 475.167,305.5 495.5,326.5C 477.749,384.735 443.749,430.901 393.5,465C 373.543,477.812 352.21,487.645 329.5,494.5C 328.933,493.58 329.599,493.246 331.5,493.5C 331.334,484.827 331.5,476.16 332,467.5C 341,458.5 350,449.5 359,440.5C 359.333,394.833 359.667,349.167 360,303.5C 366.667,296.833 373.333,290.167 380,283.5C 380.333,294.833 380.667,306.167 381,317.5C 398.702,299.965 416.202,282.299 433.5,264.5 Z"/></g>
<g><path style="opacity:0.631" fill="#593dde" d="M 19.5,338.5 C 21.1376,339.705 21.4709,341.038 20.5,342.5C 19.7659,341.292 19.4326,339.959 19.5,338.5 Z"/></g>
<g><path style="opacity:0.106" fill="#a0127a" d="M 35.5,374.5 C 37.3818,375.221 37.7152,376.221 36.5,377.5C 35.8902,376.609 35.5569,375.609 35.5,374.5 Z"/></g>
<g><path style="opacity:0.086" fill="#9d49c0" d="M 39.5,381.5 C 41.2503,382.659 42.2503,384.326 42.5,386.5C 40.7497,385.341 39.7497,383.674 39.5,381.5 Z"/></g>
<g><path style="opacity:0.667" fill="#9466af" d="M 61.5,413.5 C 59.457,412.421 58.1237,410.754 57.5,408.5C 57.81,407.262 58.31,407.262 59,408.5C 59.7845,410.286 60.9512,411.786 62.5,413C 62.2716,413.399 61.9382,413.565 61.5,413.5 Z"/></g>
<g><path style="opacity:1" fill="#a8c966" d="M 204.5,425.5 C 230.632,451.132 256.632,476.965 282.5,503C 281.263,503.232 280.263,503.732 279.5,504.5C 264.211,505.635 248.878,505.802 233.5,505C 223.89,504.368 214.556,502.868 205.5,500.5C 204.186,488.057 203.519,475.39 203.5,462.5C 203.5,449.995 203.833,437.662 204.5,425.5 Z"/></g>
<g><path style="opacity:0.122" fill="#a480b0" d="M 117.5,464.5 C 115.77,463.974 114.436,462.974 113.5,461.5C 113.435,461.062 113.601,460.728 114,460.5C 114.903,461.701 116.069,462.535 117.5,463C 118.738,463.69 118.738,464.19 117.5,464.5 Z"/></g>
<g><path style="opacity:0.035" fill="#9642a9" d="M 178.5,493.5 C 180.698,493.12 182.365,493.787 183.5,495.5C 181.597,495.204 179.93,494.537 178.5,493.5 Z"/></g>
</svg>
