<?xml version="1.0" encoding="UTF-8"?>
<!DOCTYPE svg PUBLIC "-//W3C//DTD SVG 1.1//EN" "http://www.w3.org/Graphics/SVG/1.1/DTD/svg11.dtd">
<svg xmlns="http://www.w3.org/2000/svg" version="1.1" width="512px" height="512px" style="shape-rendering:geometricPrecision; text-rendering:geometricPrecision; image-rendering:optimizeQuality; fill-rule:evenodd; clip-rule:evenodd" xmlns:xlink="http://www.w3.org/1999/xlink">
<g><path style="opacity:1" fill="#c1d795" d="M 495.5,326.5 C 440.5,270.833 385.167,215.5 329.5,160.5C 309.281,137.33 283.615,126.33 252.5,127.5C 200.058,129.112 171.392,155.946 166.5,208C 166.502,211.021 166.836,213.854 167.5,216.5C 189.167,238.833 211.167,260.833 233.5,282.5C 210.962,311.54 187.462,339.874 163,367.5C 162.183,373.016 162.349,378.35 163.5,383.5C 202.965,423.465 242.632,463.299 282.5,503C 281.263,503.232 280.263,503.732 279.5,504.5C 239.509,508.596 200.842,503.263 163.5,488.5C 162.685,487.163 161.518,486.163 160,485.5C 159.601,485.728 159.435,486.062 159.5,486.5C 98.1186,460.62 53.6186,417.287 26,356.5C 19.9903,342.971 15.4903,328.971 12.5,314.5C 12.8294,311.772 12.1628,309.438 10.5,307.5C -6.1621,214.66 19.1712,135.494 86.5,70C 105.599,52.7361 126.933,38.9028 150.5,28.5C 152.179,28.7148 153.179,28.0481 153.5,26.5C 209.77,2.83155 267.437,-1.00178 326.5,15C 411.667,42.8333 468.167,99.3333 496,184.5C 505.424,218.292 508.091,252.626 504,287.5C 502.358,300.888 499.525,313.888 495.5,326.5 Z"/></g>
<g><path style="opacity:0.984" fill="#a94cc3" d="M 153.5,26.5 C 153.179,28.0481 152.179,28.7148 150.5,28.5C 151.29,27.5987 152.29,26.9321 153.5,26.5 Z"/></g>
<g><path style="opacity:1" fill="#fefefe" d="M 329.5,160.5 C 344.173,183.052 347.673,207.385 340,233.5C 335.248,247.003 328.915,259.67 321,271.5C 307.888,289.381 294.055,306.714 279.5,323.5C 302.49,324.5 325.49,324.833 348.5,324.5C 348.5,344.167 348.5,363.833 348.5,383.5C 286.833,383.5 225.167,383.5 163.5,383.5C 162.349,378.35 162.183,373.016 163,367.5C 187.462,339.874 210.962,311.54 233.5,282.5C 245.859,268.801 257.026,254.134 267,238.5C 274.541,227.223 277.541,214.889 276,201.5C 270.983,189.741 262.15,184.908 249.5,187C 236.123,192.245 230.457,202.078 232.5,216.5C 210.833,216.5 189.167,216.5 167.5,216.5C 166.836,213.854 166.502,211.021 166.5,208C 171.392,155.946 200.058,129.112 252.5,127.5C 283.615,126.33 309.281,137.33 329.5,160.5 Z"/></g>
<g><path style="opacity:1" fill="#839078" d="M 329.5,160.5 C 385.167,215.5 440.5,270.833 495.5,326.5C 471.755,402.796 423.088,456.63 349.5,488C 326.974,496.965 303.641,502.465 279.5,504.5C 280.263,503.732 281.263,503.232 282.5,503C 242.632,463.299 202.965,423.465 163.5,383.5C 225.167,383.5 286.833,383.5 348.5,383.5C 348.5,363.833 348.5,344.167 348.5,324.5C 325.49,324.833 302.49,324.5 279.5,323.5C 294.055,306.714 307.888,289.381 321,271.5C 328.915,259.67 335.248,247.003 340,233.5C 347.673,207.385 344.173,183.052 329.5,160.5 Z"/></g>
<g><path style="opacity:1" fill="#839078" d="M 233.5,282.5 C 211.167,260.833 189.167,238.833 167.5,216.5C 189.167,216.5 210.833,216.5 232.5,216.5C 230.457,202.078 236.123,192.245 249.5,187C 262.15,184.908 270.983,189.741 276,201.5C 277.541,214.889 274.541,227.223 267,238.5C 257.026,254.134 245.859,268.801 233.5,282.5 Z"/></g>
<g><path style="opacity:0.247" fill="#895da7" d="M 10.5,307.5 C 12.1628,309.438 12.8294,311.772 12.5,314.5C 11.3882,312.401 10.7215,310.067 10.5,307.5 Z"/></g>
<g><path style="opacity:0.098" fill="#ba54c0" d="M 163.5,488.5 C 161.847,488.34 160.514,487.674 159.5,486.5C 159.435,486.062 159.601,485.728 160,485.5C 161.518,486.163 162.685,487.163 163.5,488.5 Z"/></g>
</svg>
