<?xml version="1.0" encoding="UTF-8"?>
<!DOCTYPE svg PUBLIC "-//W3C//DTD SVG 1.1//EN" "http://www.w3.org/Graphics/SVG/1.1/DTD/svg11.dtd">
<svg xmlns="http://www.w3.org/2000/svg" version="1.1" width="512px" height="512px" style="shape-rendering:geometricPrecision; text-rendering:geometricPrecision; image-rendering:optimizeQuality; fill-rule:evenodd; clip-rule:evenodd" xmlns:xlink="http://www.w3.org/1999/xlink">
<g><path style="opacity:1" fill="#a4d050" d="M 237.5,5.5 C 250.837,5.33344 264.171,5.5001 277.5,6C 285.41,6.48576 293.076,7.65243 300.5,9.5C 299.5,9.5 298.5,9.5 297.5,9.5C 297.5,48.8333 297.5,88.1667 297.5,127.5C 276.833,127.5 256.167,127.5 235.5,127.5C 234.848,86.6138 235.515,45.9471 237.5,5.5 Z"/></g>
<g><path style="opacity:1" fill="#acd363" d="M 237.5,5.5 C 235.515,45.9471 234.848,86.6138 235.5,127.5C 213.167,127.5 190.833,127.5 168.5,127.5C 168.5,146.5 168.5,165.5 168.5,184.5C 186.14,201.473 203.473,218.806 220.5,236.5C 217.691,241.445 214.857,246.445 212,251.5C 211.185,256.352 211.352,261.019 212.5,265.5C 231.167,284.5 249.833,303.5 268.5,322.5C 264.423,324.524 260.09,325.524 255.5,325.5C 246.167,315.5 236.5,305.833 226.5,296.5C 206.167,296.5 185.833,296.5 165.5,296.5C 165.5,204.833 165.5,113.167 165.5,21.5C 188.708,12.7244 212.708,7.3911 237.5,5.5 Z"/></g>
<g><path style="opacity:1" fill="#9ecd45" d="M 300.5,9.5 C 315.772,11.6492 330.438,15.6492 344.5,21.5C 345.221,23.3818 346.221,23.7152 347.5,22.5C 348.492,22.3284 349.158,22.6618 349.5,23.5C 350.789,25.3287 353.122,26.3287 356.5,26.5C 361.484,28.3255 366.151,30.6589 370.5,33.5C 368.506,74.1531 367.839,115.153 368.5,156.5C 359.167,147.5 349.833,138.5 340.5,129.5C 326.539,127.517 312.206,126.85 297.5,127.5C 297.5,88.1667 297.5,48.8333 297.5,9.5C 298.5,9.5 299.5,9.5 300.5,9.5 Z"/></g>
<g><path style="opacity:0.729" fill="#6c5eca" d="M 344.5,21.5 C 345.609,21.5569 346.609,21.8902 347.5,22.5C 346.221,23.7152 345.221,23.3818 344.5,21.5 Z"/></g>
<g><path style="opacity:1" fill="#b0d46c" d="M 165.5,21.5 C 165.5,113.167 165.5,204.833 165.5,296.5C 164.5,296.5 163.5,296.5 162.5,296.5C 163.091,323.003 173.091,345.003 192.5,362.5C 191.185,407.777 191.185,452.777 192.5,497.5C 189.097,497.149 185.763,496.482 182.5,495.5C 182.53,494.503 182.03,493.836 181,493.5C 179.237,493.025 177.57,492.358 176,491.5C 175.601,491.728 175.435,492.062 175.5,492.5C 168.784,490.965 162.45,488.632 156.5,485.5C 156.938,485.565 157.272,485.399 157.5,485C 156.584,484.626 155.75,484.126 155,483.5C 154.601,483.728 154.435,484.062 154.5,484.5C 150.71,483.105 147.043,481.438 143.5,479.5C 143.168,330.097 143.502,180.763 144.5,31.5C 151.04,27.3984 158.04,24.0651 165.5,21.5 Z"/></g>
<g><path style="opacity:0.988" fill="#a073a3" d="M 349.5,23.5 C 352.157,23.9348 354.491,24.9348 356.5,26.5C 353.122,26.3287 350.789,25.3287 349.5,23.5 Z"/></g>
<g><path style="opacity:1" fill="#b3d574" d="M 144.5,31.5 C 143.502,180.763 143.168,330.097 143.5,479.5C 135.623,475.928 128.29,471.595 121.5,466.5C 120.685,465.163 119.518,464.163 118,463.5C 117.503,324.195 117.337,185.195 117.5,46.5C 118.514,45.3263 119.847,44.6596 121.5,44.5C 124.719,43.9307 127.052,42.264 128.5,39.5C 133.55,36.3084 138.883,33.6417 144.5,31.5 Z"/></g>
<g><path style="opacity:0.961" fill="#9c7da6" d="M 374.5,35.5 C 377.331,36.0787 379.664,37.412 381.5,39.5C 378.179,38.7183 375.846,37.385 374.5,35.5 Z"/></g>
<g><path style="opacity:0.898" fill="#ab8cc0" d="M 128.5,39.5 C 127.052,42.264 124.719,43.9307 121.5,44.5C 123.531,42.4776 125.865,40.8109 128.5,39.5 Z"/></g>
<g><path style="opacity:0.369" fill="#6c6fc3" d="M 386.5,42.5 C 388.027,42.427 389.027,43.0937 389.5,44.5C 387.973,44.573 386.973,43.9063 386.5,42.5 Z"/></g>
<g><path style="opacity:0.024" fill="#8d4e88" d="M 401.5,52.5 C 403.027,52.427 404.027,53.0937 404.5,54.5C 403.242,55.0164 402.242,54.3497 401.5,52.5 Z"/></g>
<g><path style="opacity:1" fill="#b8d67e" d="M 117.5,46.5 C 117.337,185.195 117.503,324.195 118,463.5C 119.518,464.163 120.685,465.163 121.5,466.5C 117.951,465.277 114.951,463.277 112.5,460.5C 111.262,458.063 109.595,457.063 107.5,457.5C 106.128,456.488 104.795,455.488 103.5,454.5C 103.631,453.761 103.464,453.094 103,452.5C 102.31,451.262 101.81,451.262 101.5,452.5C 99.0676,451.25 96.7343,449.75 94.5,448C 88.3297,442.996 82.6631,437.496 77.5,431.5C 76.5849,429.246 75.2516,427.246 73.5,425.5C 73.1707,311.126 73.504,196.793 74.5,82.5C 79.204,76.7949 84.5374,71.7949 90.5,67.5C 90.4346,67.9382 90.6012,68.2716 91,68.5C 92.5,67 94,65.5 95.5,64C 95.2716,63.6012 94.9382,63.4346 94.5,63.5C 101.861,57.4792 109.528,51.8126 117.5,46.5 Z"/></g>
<g><path style="opacity:0.031" fill="#b8a796" d="M 409.5,58.5 C 414.248,60.8824 418.248,64.2157 421.5,68.5C 417.226,65.3519 412.892,62.1852 408.5,59C 408.728,58.6012 409.062,58.4346 409.5,58.5 Z"/></g>
<g><path style="opacity:0.749" fill="#a371b6" d="M 94.5,63.5 C 94.9382,63.4346 95.2716,63.6012 95.5,64C 94,65.5 92.5,67 91,68.5C 90.6012,68.2716 90.4346,67.9382 90.5,67.5C 91.5,65.8333 92.8333,64.5 94.5,63.5 Z"/></g>
<g><path style="opacity:1" fill="#96c838" d="M 370.5,33.5 C 372.153,33.6596 373.486,34.3263 374.5,35.5C 375.846,37.385 378.179,38.7183 381.5,39.5C 383.674,39.7497 385.341,40.7497 386.5,42.5C 386.973,43.9063 387.973,44.573 389.5,44.5C 394.197,46.1775 398.197,48.8442 401.5,52.5C 402.242,54.3497 403.242,55.0164 404.5,54.5C 406.754,55.1237 408.421,56.457 409.5,58.5C 409.062,58.4346 408.728,58.6012 408.5,59C 412.892,62.1852 417.226,65.3519 421.5,68.5C 425.456,70.7881 428.789,73.7881 431.5,77.5C 431.062,77.4346 430.728,77.6012 430.5,78C 432.114,80.1267 434.114,81.6267 436.5,82.5C 439.55,84.5491 441.883,87.2157 443.5,90.5C 444.419,93.0892 446.086,95.0892 448.5,96.5C 457.135,106.423 464.802,117.09 471.5,128.5C 470.957,128.56 470.624,128.893 470.5,129.5C 471.919,131.336 473.086,133.336 474,135.5C 474.399,135.272 474.565,134.938 474.5,134.5C 479.677,143.52 484.343,152.854 488.5,162.5C 487.597,165.092 488.264,167.426 490.5,169.5C 504.788,207.757 509.121,247.09 503.5,287.5C 502.732,288.263 502.232,289.263 502,290.5C 477.911,266.244 453.745,242.244 429.5,218.5C 418.139,206.807 406.806,195.14 395.5,183.5C 386.113,174.779 377.113,165.779 368.5,156.5C 367.839,115.153 368.506,74.1531 370.5,33.5 Z"/></g>
<g><path style="opacity:0.886" fill="#a595a7" d="M 431.5,77.5 C 433.5,78.8333 435.167,80.5 436.5,82.5C 434.114,81.6267 432.114,80.1267 430.5,78C 430.728,77.6012 431.062,77.4346 431.5,77.5 Z"/></g>
<g><path style="opacity:0.753" fill="#b26f8b" d="M 443.5,90.5 C 445.914,91.9108 447.581,93.9108 448.5,96.5C 446.086,95.0892 444.419,93.0892 443.5,90.5 Z"/></g>
<g><path style="opacity:1" fill="#bbd686" d="M 74.5,82.5 C 73.504,196.793 73.1707,311.126 73.5,425.5C 72.6043,424.494 71.9377,424.494 71.5,425.5C 64.412,418.081 58.0787,410.081 52.5,401.5C 53.547,400.922 53.3803,400.256 52,399.5C 51.505,302.862 51.3383,206.529 51.5,110.5C 58.2213,100.391 65.888,91.0578 74.5,82.5 Z"/></g>
<g><path style="opacity:1" fill="#bdd58d" d="M 51.5,110.5 C 51.3383,206.529 51.505,302.862 52,399.5C 53.3803,400.256 53.547,400.922 52.5,401.5C 16.3164,351.123 0.816429,294.789 6,232.5C 7.69826,212.83 11.8649,193.83 18.5,175.5C 19.7709,173.891 20.7709,172.058 21.5,170C 21.2716,169.601 20.9382,169.435 20.5,169.5C 27.9835,148.194 38.3168,128.527 51.5,110.5 Z"/></g>
<g><path style="opacity:1" fill="#cfdcba" d="M 235.5,127.5 C 256.167,127.5 276.833,127.5 297.5,127.5C 312.206,126.85 326.539,127.517 340.5,129.5C 340.813,133.042 340.479,136.375 339.5,139.5C 339.5,135.833 339.5,132.167 339.5,128.5C 282.833,128.5 226.167,128.5 169.5,128.5C 169.5,147.167 169.5,165.833 169.5,184.5C 169.167,184.5 168.833,184.5 168.5,184.5C 168.5,165.5 168.5,146.5 168.5,127.5C 190.833,127.5 213.167,127.5 235.5,127.5 Z"/></g>
<g><path style="opacity:1" fill="#fefefe" d="M 339.5,139.5 C 323.428,165.973 307.095,192.306 290.5,218.5C 329.156,231.512 348.49,258.512 348.5,299.5C 343.436,346.069 317.769,373.569 271.5,382C 243.886,386.246 218.553,380.746 195.5,365.5C 194.833,364.167 193.833,363.167 192.5,362.5C 173.091,345.003 163.091,323.003 162.5,296.5C 163.5,296.5 164.5,296.5 165.5,296.5C 185.833,296.5 206.167,296.5 226.5,296.5C 227.93,314.597 237.596,324.263 255.5,325.5C 260.09,325.524 264.423,324.524 268.5,322.5C 280.805,314.117 285.639,302.45 283,287.5C 279.397,274.566 270.897,267.4 257.5,266C 242.504,265.5 227.504,265.333 212.5,265.5C 211.352,261.019 211.185,256.352 212,251.5C 214.857,246.445 217.691,241.445 220.5,236.5C 231.304,219.506 241.97,202.339 252.5,185C 224.835,184.5 197.169,184.333 169.5,184.5C 169.5,165.833 169.5,147.167 169.5,128.5C 226.167,128.5 282.833,128.5 339.5,128.5C 339.5,132.167 339.5,135.833 339.5,139.5 Z"/></g>
<g><path style="opacity:0.992" fill="#c67c86" d="M 471.5,128.5 C 473.025,130.216 474.025,132.216 474.5,134.5C 474.565,134.938 474.399,135.272 474,135.5C 473.086,133.336 471.919,131.336 470.5,129.5C 470.624,128.893 470.957,128.56 471.5,128.5 Z"/></g>
<g><path style="opacity:1" fill="#6f8e3d" d="M 340.5,129.5 C 349.833,138.5 359.167,147.5 368.5,156.5C 377.113,165.779 386.113,174.779 395.5,183.5C 394.627,185.886 393.127,187.886 391,189.5C 390.667,197.5 390.333,205.5 390,213.5C 386,217.5 382,221.5 378,225.5C 377.667,230.833 377.333,236.167 377,241.5C 373,245.5 369,249.5 365,253.5C 364.667,258.833 364.333,264.167 364,269.5C 359.667,273.833 355.333,278.167 351,282.5C 350.667,287.833 350.333,293.167 350,298.5C 349.617,299.056 349.117,299.389 348.5,299.5C 348.49,258.512 329.156,231.512 290.5,218.5C 307.095,192.306 323.428,165.973 339.5,139.5C 340.479,136.375 340.813,133.042 340.5,129.5 Z"/></g>
<g><path style="opacity:0.718" fill="#b76b90" d="M 488.5,162.5 C 489.455,164.746 490.122,167.079 490.5,169.5C 488.264,167.426 487.597,165.092 488.5,162.5 Z"/></g>
<g><path style="opacity:0.361" fill="#b74a82" d="M 20.5,169.5 C 20.9382,169.435 21.2716,169.601 21.5,170C 20.7709,172.058 19.7709,173.891 18.5,175.5C 18.595,173.214 19.2616,171.214 20.5,169.5 Z"/></g>
<g><path style="opacity:1" fill="#768f54" d="M 168.5,184.5 C 168.833,184.5 169.167,184.5 169.5,184.5C 197.169,184.333 224.835,184.5 252.5,185C 241.97,202.339 231.304,219.506 220.5,236.5C 203.473,218.806 186.14,201.473 168.5,184.5 Z"/></g>
<g><path style="opacity:1" fill="#739047" d="M 212.5,265.5 C 227.504,265.333 242.504,265.5 257.5,266C 270.897,267.4 279.397,274.566 283,287.5C 285.639,302.45 280.805,314.117 268.5,322.5C 249.833,303.5 231.167,284.5 212.5,265.5 Z"/></g>
<g><path style="opacity:1" fill="#6e9036" d="M 395.5,183.5 C 406.806,195.14 418.139,206.807 429.5,218.5C 429.666,223.844 429.499,229.177 429,234.5C 425,238.5 421,242.5 417,246.5C 416.667,252.167 416.333,257.833 416,263.5C 412,267.5 408,271.5 404,275.5C 403.667,280.833 403.333,286.167 403,291.5C 399,295.5 395,299.5 391,303.5C 390.667,308.833 390.333,314.167 390,319.5C 386,323.5 382,327.5 378,331.5C 377.667,336.833 377.333,342.167 377,347.5C 373,351.5 369,355.5 365,359.5C 364.667,364.833 364.333,370.167 364,375.5C 359.667,379.833 355.333,384.167 351,388.5C 350.667,393.833 350.333,399.167 350,404.5C 346,408.5 342,412.5 338,416.5C 337.667,421.833 337.333,427.167 337,432.5C 333,436.5 329,440.5 325,444.5C 324.667,450.167 324.333,455.833 324,461.5C 320,465.5 316,469.5 312,473.5C 311.814,476.036 311.314,478.369 310.5,480.5C 285.5,455.833 260.5,431.167 235.5,406.5C 222.167,392.833 208.833,379.167 195.5,365.5C 218.553,380.746 243.886,386.246 271.5,382C 317.769,373.569 343.436,346.069 348.5,299.5C 349.117,299.389 349.617,299.056 350,298.5C 350.333,293.167 350.667,287.833 351,282.5C 355.333,278.167 359.667,273.833 364,269.5C 364.333,264.167 364.667,258.833 365,253.5C 369,249.5 373,245.5 377,241.5C 377.333,236.167 377.667,230.833 378,225.5C 382,221.5 386,217.5 390,213.5C 390.333,205.5 390.667,197.5 391,189.5C 393.127,187.886 394.627,185.886 395.5,183.5 Z"/></g>
<g><path style="opacity:1" fill="#77944a" d="M 226.5,296.5 C 236.5,305.833 246.167,315.5 255.5,325.5C 237.596,324.263 227.93,314.597 226.5,296.5 Z"/></g>
<g><path style="opacity:1" fill="#6b902c" d="M 429.5,218.5 C 453.745,242.244 477.911,266.244 502,290.5C 502.232,289.263 502.732,288.263 503.5,287.5C 501.879,304.315 498.212,320.648 492.5,336.5C 490.481,337.538 490.147,338.872 491.5,340.5C 489.677,345.32 487.677,349.987 485.5,354.5C 483.868,355.581 482.535,357.581 481.5,360.5C 481.624,361.107 481.957,361.44 482.5,361.5C 449.328,430.335 395.995,475.335 322.5,496.5C 322.918,495.778 323.584,495.278 324.5,495C 319.63,490.298 314.963,485.465 310.5,480.5C 311.314,478.369 311.814,476.036 312,473.5C 316,469.5 320,465.5 324,461.5C 324.333,455.833 324.667,450.167 325,444.5C 329,440.5 333,436.5 337,432.5C 337.333,427.167 337.667,421.833 338,416.5C 342,412.5 346,408.5 350,404.5C 350.333,399.167 350.667,393.833 351,388.5C 355.333,384.167 359.667,379.833 364,375.5C 364.333,370.167 364.667,364.833 365,359.5C 369,355.5 373,351.5 377,347.5C 377.333,342.167 377.667,336.833 378,331.5C 382,327.5 386,323.5 390,319.5C 390.333,314.167 390.667,308.833 391,303.5C 395,299.5 399,295.5 403,291.5C 403.333,286.167 403.667,280.833 404,275.5C 408,271.5 412,267.5 416,263.5C 416.333,257.833 416.667,252.167 417,246.5C 421,242.5 425,238.5 429,234.5C 429.499,229.177 429.666,223.844 429.5,218.5 Z"/></g>
<g><path style="opacity:0.42" fill="#8124b1" d="M 492.5,336.5 C 492.167,337.833 491.833,339.167 491.5,340.5C 490.147,338.872 490.481,337.538 492.5,336.5 Z"/></g>
<g><path style="opacity:0.62" fill="#8a6da1" d="M 485.5,354.5 C 484.773,356.954 483.773,359.287 482.5,361.5C 481.957,361.44 481.624,361.107 481.5,360.5C 482.535,357.581 483.868,355.581 485.5,354.5 Z"/></g>
<g><path style="opacity:1" fill="#aad25c" d="M 192.5,362.5 C 193.833,363.167 194.833,364.167 195.5,365.5C 208.833,379.167 222.167,392.833 235.5,406.5C 235.5,439.5 235.5,472.5 235.5,505.5C 229.547,504.571 223.547,503.904 217.5,503.5C 215.721,501.656 213.388,500.99 210.5,501.5C 204.191,501.041 198.191,499.707 192.5,497.5C 191.185,452.777 191.185,407.777 192.5,362.5 Z"/></g>
<g><path style="opacity:0.792" fill="#8f7bd7" d="M 73.5,425.5 C 75.2516,427.246 76.5849,429.246 77.5,431.5C 75.1667,429.833 73.1667,427.833 71.5,425.5C 71.9377,424.494 72.6043,424.494 73.5,425.5 Z"/></g>
<g><path style="opacity:1" fill="#a4d051" d="M 235.5,406.5 C 260.5,431.167 285.5,455.833 310.5,480.5C 314.963,485.465 319.63,490.298 324.5,495C 323.584,495.278 322.918,495.778 322.5,496.5C 320.095,497.768 317.428,498.435 314.5,498.5C 311.505,498.294 308.838,498.96 306.5,500.5C 297,502.786 287.333,504.286 277.5,505C 263.504,505.5 249.504,505.667 235.5,505.5C 235.5,472.5 235.5,439.5 235.5,406.5 Z"/></g>
<g><path style="opacity:0.247" fill="#a03fe2" d="M 103.5,454.5 C 102.5,454.167 101.833,453.5 101.5,452.5C 101.81,451.262 102.31,451.262 103,452.5C 103.464,453.094 103.631,453.761 103.5,454.5 Z"/></g>
<g><path style="opacity:0.259" fill="#c89ede" d="M 112.5,460.5 C 110.566,459.89 108.899,458.89 107.5,457.5C 109.595,457.063 111.262,458.063 112.5,460.5 Z"/></g>
<g><path style="opacity:0.027" fill="#bc5dcd" d="M 156.5,485.5 C 155.508,485.672 154.842,485.338 154.5,484.5C 154.435,484.062 154.601,483.728 155,483.5C 155.75,484.126 156.584,484.626 157.5,485C 157.272,485.399 156.938,485.565 156.5,485.5 Z"/></g>
<g><path style="opacity:0.075" fill="#9979c9" d="M 182.5,495.5 C 180.013,494.677 177.679,493.677 175.5,492.5C 175.435,492.062 175.601,491.728 176,491.5C 177.57,492.358 179.237,493.025 181,493.5C 182.03,493.836 182.53,494.503 182.5,495.5 Z"/></g>
<g><path style="opacity:0.451" fill="#8d618b" d="M 314.5,498.5 C 312.095,499.768 309.428,500.435 306.5,500.5C 308.838,498.96 311.505,498.294 314.5,498.5 Z"/></g>
<g><path style="opacity:0.714" fill="#9861ab" d="M 210.5,501.5 C 213.388,500.99 215.721,501.656 217.5,503.5C 215.048,502.935 212.715,502.268 210.5,501.5 Z"/></g>
</svg>
