<?xml version="1.0" encoding="UTF-8"?>
<!DOCTYPE svg PUBLIC "-//W3C//DTD SVG 1.1//EN" "http://www.w3.org/Graphics/SVG/1.1/DTD/svg11.dtd">
<svg xmlns="http://www.w3.org/2000/svg" version="1.1" width="512px" height="512px" style="shape-rendering:geometricPrecision; text-rendering:geometricPrecision; image-rendering:optimizeQuality; fill-rule:evenodd; clip-rule:evenodd" xmlns:xlink="http://www.w3.org/1999/xlink">
<g><path style="opacity:1" fill="#c1d795" d="M 455.5,105.5 C 456.136,107.795 457.469,109.461 459.5,110.5C 495.563,161.742 510.563,218.742 504.5,281.5C 503.616,284.023 502.782,286.69 502,289.5C 498.684,286.018 495.184,282.685 491.5,279.5C 481.034,268.842 470.368,258.508 459.5,248.5C 448.21,236.842 436.877,225.175 425.5,213.5C 412.492,200.79 399.492,188.123 386.5,175.5C 371.5,159.833 356.167,144.5 340.5,129.5C 283.51,127.504 226.176,126.837 168.5,127.5C 168.5,146.5 168.5,165.5 168.5,184.5C 186.14,201.473 203.473,218.806 220.5,236.5C 217.923,241.594 215.089,246.594 212,251.5C 211.185,256.352 211.352,261.019 212.5,265.5C 231.167,284.5 249.833,303.5 268.5,322.5C 264.423,324.524 260.09,325.524 255.5,325.5C 246.167,315.5 236.5,305.833 226.5,296.5C 205.167,296.5 183.833,296.5 162.5,296.5C 163.021,324.119 173.688,346.785 194.5,364.5C 218.785,389.452 243.452,414.119 268.5,438.5C 278.833,449.5 289.5,460.167 300.5,470.5C 308.298,478.798 316.298,486.965 324.5,495C 322.509,495.374 320.842,496.207 319.5,497.5C 291.334,505.023 262.668,507.523 233.5,505C 209.311,502.952 185.977,497.452 163.5,488.5C 162.685,487.163 161.518,486.163 160,485.5C 159.601,485.728 159.435,486.062 159.5,486.5C 98.1186,460.62 53.6186,417.287 26,356.5C 19.9903,342.971 15.4903,328.971 12.5,314.5C 12.8294,311.772 12.1628,309.438 10.5,307.5C -6.1621,214.66 19.1712,135.494 86.5,70C 105.599,52.7361 126.933,38.9028 150.5,28.5C 152.179,28.7148 153.179,28.0481 153.5,26.5C 209.77,2.83155 267.437,-1.00178 326.5,15C 374.927,29.6146 415.427,56.1146 448,94.5C 451.015,97.8777 453.515,101.544 455.5,105.5 Z"/></g>
<g><path style="opacity:0.984" fill="#a94cc3" d="M 153.5,26.5 C 153.179,28.0481 152.179,28.7148 150.5,28.5C 151.29,27.5987 152.29,26.9321 153.5,26.5 Z"/></g>
<g><path style="opacity:0.8" fill="#94628b" d="M 455.5,105.5 C 457.543,106.579 458.876,108.246 459.5,110.5C 457.469,109.461 456.136,107.795 455.5,105.5 Z"/></g>
<g><path style="opacity:1" fill="#fefefe" d="M 329.5,129.5 C 340.665,132.85 340.498,136.183 340,139.5C 323.5,165.833 307,192.167 290.5,218.5C 302.99,222.745 314.323,229.079 324.5,237.5C 339.546,252.267 347.546,270.267 348.5,291.5C 347.213,342.295 321.546,372.461 271.5,382C 243.324,386.369 217.657,380.536 194.5,364.5C 173.688,346.785 163.021,324.119 162.5,296.5C 183.833,296.5 205.167,296.5 226.5,296.5C 227.943,314.61 237.609,324.276 255.5,325.5C 260.09,325.524 264.423,324.524 268.5,322.5C 280.809,314.104 285.642,302.437 283,287.5C 279.397,274.566 270.897,267.4 257.5,266C 242.504,265.5 227.504,265.333 212.5,265.5C 211.352,261.019 211.185,256.352 212,251.5C 215.089,246.594 217.923,241.594 220.5,236.5C 231.304,219.506 241.97,202.339 252.5,185C 224.502,184.5 196.502,184.333 168.5,184.5C 168.5,165.5 168.5,146.5 168.5,127.5C 226.176,126.837 283.51,127.504 340.5,129.5 Z"/></g>
<g><path style="opacity:1" fill="#839078" d="M 340.5,129.5 C 356.167,144.5 371.5,159.833 386.5,175.5C 366.167,196.5 345.5,217.167 324.5,237.5C 314.323,229.079 302.99,222.745 290.5,218.5C 307,192.167 323.5,165.833 340,139.5C 340.498,136.183 340.665,132.85 340.5,129.5 Z"/></g>
<g><path style="opacity:1" fill="#839078" d="M 168.5,184.5 C 196.502,184.333 224.502,184.5 252.5,185C 241.97,202.339 231.304,219.506 220.5,236.5C 203.473,218.806 186.14,201.473 168.5,184.5 Z"/></g>
<g><path style="opacity:1" fill="#839078" d="M 386.5,175.5 C 399.492,188.123 412.492,200.79 425.5,213.5C 400.55,240.117 374.884,266.117 348.5,291.5C 347.546,270.267 339.546,252.267 324.5,237.5C 345.5,217.167 366.167,196.5 386.5,175.5 Z"/></g>
<g><path style="opacity:1" fill="#839078" d="M 425.5,213.5 C 436.877,225.175 448.21,236.842 459.5,248.5C 395.833,311.833 332.167,375.167 268.5,438.5C 243.452,414.119 218.785,389.452 194.5,364.5C 217.657,380.536 243.324,386.369 271.5,382C 321.546,372.461 347.213,342.295 348.5,291.5C 374.884,266.117 400.55,240.117 425.5,213.5 Z"/></g>
<g><path style="opacity:1" fill="#839078" d="M 459.5,248.5 C 470.368,258.508 481.034,268.842 491.5,279.5C 429.084,343.417 366.084,406.917 302.5,470C 301.906,470.464 301.239,470.631 300.5,470.5C 289.5,460.167 278.833,449.5 268.5,438.5C 332.167,375.167 395.833,311.833 459.5,248.5 Z"/></g>
<g><path style="opacity:1" fill="#839078" d="M 212.5,265.5 C 227.504,265.333 242.504,265.5 257.5,266C 270.897,267.4 279.397,274.566 283,287.5C 285.642,302.437 280.809,314.104 268.5,322.5C 249.833,303.5 231.167,284.5 212.5,265.5 Z"/></g>
<g><path style="opacity:0.475" fill="#839078" d="M 502.5,297.5 C 502.198,300.373 501.531,303.039 500.5,305.5C 500.111,302.447 500.777,299.78 502.5,297.5 Z"/></g>
<g><path style="opacity:1" fill="#839078" d="M 226.5,296.5 C 236.5,305.833 246.167,315.5 255.5,325.5C 237.609,324.276 227.943,314.61 226.5,296.5 Z"/></g>
<g><path style="opacity:0.247" fill="#839078" d="M 10.5,307.5 C 12.1628,309.438 12.8294,311.772 12.5,314.5C 11.3882,312.401 10.7215,310.067 10.5,307.5 Z"/></g>
<g><path style="opacity:1" fill="#839078" d="M 491.5,279.5 C 495.184,282.685 498.684,286.018 502,289.5C 502.782,286.69 503.616,284.023 504.5,281.5C 504.113,286.874 503.446,292.207 502.5,297.5C 500.777,299.78 500.111,302.447 500.5,305.5C 485.207,376.633 446.874,431.467 385.5,470C 364.906,482.586 342.906,491.752 319.5,497.5C 320.842,496.207 322.509,495.374 324.5,495C 316.298,486.965 308.298,478.798 300.5,470.5C 301.239,470.631 301.906,470.464 302.5,470C 366.084,406.917 429.084,343.417 491.5,279.5 Z"/></g>
<g><path style="opacity:0.098" fill="#839078" d="M 163.5,488.5 C 161.847,488.34 160.514,487.674 159.5,486.5C 159.435,486.062 159.601,485.728 160,485.5C 161.518,486.163 162.685,487.163 163.5,488.5 Z"/></g>
</svg>
