<?xml version="1.0" encoding="UTF-8"?>
<!DOCTYPE svg PUBLIC "-//W3C//DTD SVG 1.1//EN" "http://www.w3.org/Graphics/SVG/1.1/DTD/svg11.dtd">
<svg xmlns="http://www.w3.org/2000/svg" version="1.1" width="512px" height="512px" style="shape-rendering:geometricPrecision; text-rendering:geometricPrecision; image-rendering:optimizeQuality; fill-rule:evenodd; clip-rule:evenodd" xmlns:xlink="http://www.w3.org/1999/xlink">
<g><path style="opacity:0.945" fill="#010100" d="M 118.5,-0.5 C 123.5,-0.5 128.5,-0.5 133.5,-0.5C 150.962,7.62852 155.795,20.6285 148,38.5C 137.994,51.0402 125.827,53.5402 111.5,46C 99.4945,35.6563 97.3278,23.4896 105,9.5C 108.802,5.03664 113.302,1.70331 118.5,-0.5 Z"/></g>
<g><path style="opacity:1" fill="#bdd392" d="M 122.5,14.5 C 134.639,14.7798 138.472,20.4465 134,31.5C 127.692,36.0215 122.025,35.3548 117,29.5C 115.087,22.9698 116.92,17.9698 122.5,14.5 Z"/></g>
<g><path style="opacity:0.958" fill="#010100" d="M 451.5,305.5 C 447.014,303.856 444.68,300.689 444.5,296C 445.434,279.183 445.768,262.35 445.5,245.5C 439.167,245.5 432.833,245.5 426.5,245.5C 297.167,245.5 167.833,245.5 38.5,245.5C 38.0096,262.394 38.6763,279.227 40.5,296C 40.9579,301.259 38.6246,304.425 33.5,305.5C 28.442,305.886 25.6086,303.552 25,298.5C 23.4758,279.526 23.1424,260.526 24,241.5C 25.4056,236.427 28.5723,232.927 33.5,231C 104.123,229.68 174.789,229.013 245.5,229C 280.667,185.833 315.833,142.667 351,99.5C 353.735,94.7448 354.235,89.7448 352.5,84.5C 354.593,51.4576 371.26,29.6243 402.5,19C 439.074,11.8729 465.907,24.7062 483,57.5C 493.905,88.0443 487.738,114.544 464.5,137C 459.327,141.09 453.66,144.423 447.5,147C 445.667,148.167 444.167,149.667 443,151.5C 433.167,177.167 423.333,202.833 413.5,228.5C 426.199,229.101 438.866,229.935 451.5,231C 455.667,232.5 458.5,235.333 460,239.5C 461.859,258.459 461.859,277.459 460,296.5C 459.734,301.933 456.9,304.933 451.5,305.5 Z"/></g>
<g><path style="opacity:1" fill="#c1d895" d="M 447.5,39.5 C 462.585,65.9429 460.419,90.9429 441,114.5C 434.11,121.033 426.276,126.2 417.5,130C 415.641,131.558 414.141,133.391 413,135.5C 400.532,167.073 388.366,198.74 376.5,230.5C 339.494,230.833 302.494,230.5 265.5,229.5C 298.856,188.645 332.023,147.645 365,106.5C 366,104.167 367,101.833 368,99.5C 364.276,73.6265 373.109,53.4598 394.5,39C 412.279,30.2066 429.946,30.3733 447.5,39.5 Z"/></g>
<g><path style="opacity:1" fill="#9ac14e" d="M 447.5,39.5 C 473.885,58.7105 479.718,83.0438 465,112.5C 461.211,118.623 456.378,123.79 450.5,128C 442.098,130.77 435.265,135.603 430,142.5C 418.529,171.752 407.362,201.085 396.5,230.5C 389.833,230.5 383.167,230.5 376.5,230.5C 388.366,198.74 400.532,167.073 413,135.5C 414.141,133.391 415.641,131.558 417.5,130C 426.276,126.2 434.11,121.033 441,114.5C 460.419,90.9429 462.585,65.9429 447.5,39.5 Z"/></g>
<g><path style="opacity:0.945" fill="#000100" d="M 186.5,84.5 C 207.426,85.6788 216.592,96.6788 214,117.5C 209.791,129.119 201.457,135.453 189,136.5C 168.853,133.213 160.853,121.547 165,101.5C 169.178,91.8524 176.344,86.1857 186.5,84.5 Z"/></g>
<g><path style="opacity:1" fill="#bdd392" d="M 185.5,100.5 C 197.854,100.559 201.687,106.225 197,117.5C 185.079,123.376 179.412,119.71 180,106.5C 181.36,103.977 183.193,101.977 185.5,100.5 Z"/></g>
<g><path style="opacity:0.942" fill="#010100" d="M 103.5,120.5 C 121.757,119.759 132.091,128.426 134.5,146.5C 131.505,165.339 120.505,173.506 101.5,171C 89.8804,166.79 83.547,158.456 82.5,146C 83.9123,132.766 90.9123,124.266 103.5,120.5 Z"/></g>
<g><path style="opacity:1" fill="#bdd492" d="M 104.5,136.5 C 116.594,135.916 120.594,141.249 116.5,152.5C 109.465,158.466 103.632,157.466 99,149.5C 97.5708,143.7 99.4041,139.367 104.5,136.5 Z"/></g>
<g><path style="opacity:1" fill="#9fbc65" d="M 426.5,245.5 C 432.497,333.875 396.664,398.542 319,439.5C 318.5,448.827 318.334,458.161 318.5,467.5C 273.165,467.333 227.832,467.5 182.5,468C 179.507,469.159 177.84,471.325 177.5,474.5C 172.489,474.666 167.489,474.499 162.5,474C 165.697,467.19 167.697,460.023 168.5,452.5C 178.087,454.852 187.753,457.018 197.5,459C 206.833,459.667 216.167,459.667 225.5,459C 237.539,455.767 242.705,447.934 241,435.5C 232.895,417.269 221.395,401.603 206.5,388.5C 221.324,374.85 232.824,358.85 241,340.5C 242.695,329.721 238.528,322.221 228.5,318C 223.167,317.333 217.833,317.333 212.5,318C 210.113,319.547 208.78,321.713 208.5,324.5C 203.797,324.437 199.13,324.771 194.5,325.5C 192.889,321.931 190.056,319.931 186,319.5C 180.099,320.979 174.265,322.646 168.5,324.5C 165.313,303.091 156.647,284.257 142.5,268C 131.055,262.644 121.888,265.144 115,275.5C 105.528,290.753 98.6951,307.086 94.5,324.5C 75.6805,317.85 56.3472,315.517 36.5,317.5C 35.2488,313.582 34.2488,309.582 33.5,305.5C 38.6246,304.425 40.9579,301.259 40.5,296C 38.6763,279.227 38.0096,262.394 38.5,245.5C 167.833,245.5 297.167,245.5 426.5,245.5 Z"/></g>
<g><path style="opacity:1" fill="#586c2e" d="M 426.5,245.5 C 432.833,245.5 439.167,245.5 445.5,245.5C 445.768,262.35 445.434,279.183 444.5,296C 444.68,300.689 447.014,303.856 451.5,305.5C 450.349,309.772 449.349,314.106 448.5,318.5C 444.834,318.742 441.667,320.075 439,322.5C 422.64,373.197 390.307,409.863 342,432.5C 340.414,434.67 339.08,437.004 338,439.5C 337.5,448.827 337.334,458.161 337.5,467.5C 331.167,467.5 324.833,467.5 318.5,467.5C 318.334,458.161 318.5,448.827 319,439.5C 396.664,398.542 432.497,333.875 426.5,245.5 Z"/></g>
<g><path style="opacity:0.987" fill="#020101" d="M 194.5,325.5 C 194.747,328.505 193.747,331.005 191.5,333C 175.922,336.632 161.589,342.966 148.5,352C 154.365,354.86 159.365,358.86 163.5,364C 173.826,367.913 183.659,372.747 193,378.5C 208.236,367.591 219.402,353.425 226.5,336C 226.241,334.739 225.574,333.739 224.5,333C 220.381,332.857 216.381,332.19 212.5,331C 210.266,329.362 208.933,327.195 208.5,324.5C 208.78,321.713 210.113,319.547 212.5,318C 217.833,317.333 223.167,317.333 228.5,318C 238.528,322.221 242.695,329.721 241,340.5C 232.824,358.85 221.324,374.85 206.5,388.5C 221.395,401.603 232.895,417.269 241,435.5C 242.705,447.934 237.539,455.767 225.5,459C 216.167,459.667 206.833,459.667 197.5,459C 187.753,457.018 178.087,454.852 168.5,452.5C 167.697,460.023 165.697,467.19 162.5,474C 167.489,474.499 172.489,474.666 177.5,474.5C 177.5,474.833 177.5,475.167 177.5,475.5C 172.5,475.5 167.5,475.5 162.5,475.5C 160.097,483.642 156.597,491.308 152,498.5C 148.899,504.437 144.399,508.77 138.5,511.5C 134.167,511.5 129.833,511.5 125.5,511.5C 121.939,509.45 118.772,506.783 116,503.5C 105.497,488.005 98.4974,471.005 95,452.5C 74.9695,459.806 54.4695,461.639 33.5,458C 24.8136,453.459 21.3136,446.293 23,436.5C 30.5482,417.603 42.0482,401.437 57.5,388C 42.2205,374.953 30.7205,359.119 23,340.5C 21.3516,329.12 25.8516,321.453 36.5,317.5C 56.3472,315.517 75.6805,317.85 94.5,324.5C 98.6951,307.086 105.528,290.753 115,275.5C 121.888,265.144 131.055,262.644 142.5,268C 156.647,284.257 165.313,303.091 168.5,324.5C 174.265,322.646 180.099,320.979 186,319.5C 190.056,319.931 192.889,321.931 194.5,325.5 Z"/></g>
<g><path style="opacity:1" fill="#941515" d="M 129.5,280.5 C 131.199,280.34 132.866,280.506 134.5,281C 146.293,295.889 152.626,312.723 153.5,331.5C 144.151,336.354 135.484,342.187 127.5,349C 120.663,349.943 114.497,352.443 109,356.5C 106.981,328.732 113.814,303.398 129.5,280.5 Z"/></g>
<g><path style="opacity:0.953" fill="#020201" d="M 448.5,318.5 C 452.724,320.959 454.224,324.626 453,329.5C 436.084,381.419 403.084,419.419 354,443.5C 353.667,452.833 353.333,462.167 353,471.5C 351.65,476.185 348.817,479.685 344.5,482C 290.545,483.649 236.545,483.983 182.5,483C 178.993,481.67 177.327,479.17 177.5,475.5C 177.5,475.167 177.5,474.833 177.5,474.5C 177.84,471.325 179.507,469.159 182.5,468C 227.832,467.5 273.165,467.333 318.5,467.5C 324.833,467.5 331.167,467.5 337.5,467.5C 337.334,458.161 337.5,448.827 338,439.5C 339.08,437.004 340.414,434.67 342,432.5C 390.307,409.863 422.64,373.197 439,322.5C 441.667,320.075 444.834,318.742 448.5,318.5 Z"/></g>
<g><path style="opacity:1" fill="#812222" d="M 208.5,324.5 C 208.933,327.195 210.266,329.362 212.5,331C 216.381,332.19 220.381,332.857 224.5,333C 225.574,333.739 226.241,334.739 226.5,336C 219.402,353.425 208.236,367.591 193,378.5C 183.659,372.747 173.826,367.913 163.5,364C 159.365,358.86 154.365,354.86 148.5,352C 161.589,342.966 175.922,336.632 191.5,333C 193.747,331.005 194.747,328.505 194.5,325.5C 199.13,324.771 203.797,324.437 208.5,324.5 Z"/></g>
<g><path style="opacity:1" fill="#812222" d="M 41.5,331.5 C 59.0661,330.702 76.0661,333.368 92.5,339.5C 93.3342,350.015 94.3342,360.515 95.5,371C 93.3187,377.969 92.1521,385.136 92,392.5C 68.6131,380.113 50.9465,362.113 39,338.5C 37.9164,335.341 38.7498,333.008 41.5,331.5 Z"/></g>
<g><path style="opacity:1" fill="#bfd694" d="M 127.5,363.5 C 147.502,363.666 157.002,373.666 156,393.5C 151.33,408.429 141.163,414.596 125.5,412C 112.681,406.837 106.847,397.337 108,383.5C 111.017,373.318 117.517,366.651 127.5,363.5 Z"/></g>
<g><path style="opacity:1" fill="#941515" d="M 171.5,383.5 C 195.505,396.005 213.672,414.339 226,438.5C 226.825,440.701 226.325,442.534 224.5,444C 205.966,446.216 188.133,443.716 171,436.5C 170.667,427.5 170.333,418.5 170,409.5C 169.578,407.645 169.078,405.811 168.5,404C 170.905,397.378 171.905,390.544 171.5,383.5 Z"/></g>
<g><path style="opacity:1" fill="#951515" d="M 70.5,397.5 C 79.801,403.65 89.801,408.483 100.5,412C 105.246,417.097 110.079,421.597 115,425.5C 91.657,440.967 66.3236,446.634 39,442.5C 38.3333,440.833 38.3333,439.167 39,437.5C 46.7266,421.945 57.2266,408.612 70.5,397.5 Z"/></g>
<g><path style="opacity:1" fill="#812222" d="M 154.5,420.5 C 157.368,447.845 150.701,473.012 134.5,496C 133.167,496.667 131.833,496.667 130.5,496C 119.703,481.394 112.703,465.061 109.5,447C 118.995,441.415 127.995,435.081 136.5,428C 143.101,426.75 149.101,424.25 154.5,420.5 Z"/></g>
</svg>
