<?xml version="1.0" encoding="UTF-8"?>
<!DOCTYPE svg PUBLIC "-//W3C//DTD SVG 1.1//EN" "http://www.w3.org/Graphics/SVG/1.1/DTD/svg11.dtd">
<svg xmlns="http://www.w3.org/2000/svg" version="1.1" width="512px" height="512px" style="shape-rendering:geometricPrecision; text-rendering:geometricPrecision; image-rendering:optimizeQuality; fill-rule:evenodd; clip-rule:evenodd" xmlns:xlink="http://www.w3.org/1999/xlink">
<g><path style="opacity:0.973" fill="#020202" d="M 310.5,182.5 C 314.71,240.603 291.043,282.769 239.5,309C 198.934,324.658 160.267,321.158 123.5,298.5C 84.9898,270.458 67.8231,232.458 72,184.5C 82.9584,125.208 118.125,90.3748 177.5,80C 234.064,76.3532 275.231,99.5199 301,149.5C 305.567,160.101 308.734,171.101 310.5,182.5 Z"/></g>
<g><path style="opacity:1" fill="#e9e7e9" d="M 179.5,94.5 C 235.135,92.7087 272.635,117.709 292,169.5C 303.534,221.578 287.034,262.078 242.5,291C 196.066,313.462 153.899,307.295 116,272.5C 83.8824,235.227 78.2157,194.227 99,149.5C 117.311,118.689 144.144,100.356 179.5,94.5 Z"/></g>
<g><path style="opacity:1" fill="#fdfdfd" d="M 187.5,112.5 C 186.542,113.962 185.376,115.295 184,116.5C 183.333,120.833 183.333,125.167 184,129.5C 187.013,134.535 191.18,135.702 196.5,133C 197.126,132.25 197.626,131.416 198,130.5C 198.667,125.5 198.667,120.5 198,115.5C 196.961,114.29 195.794,113.29 194.5,112.5C 216.927,112.198 236.26,120.031 252.5,136C 252.272,136.399 251.938,136.565 251.5,136.5C 248.745,135.02 246.078,135.187 243.5,137C 229.833,150.667 216.167,164.333 202.5,178C 183.529,172.485 171.863,179.318 167.5,198.5C 167.887,202.329 168.887,205.996 170.5,209.5C 164.848,215.652 159.015,221.652 153,227.5C 150.546,233.593 152.546,237.259 159,238.5C 160.967,238.458 162.801,237.958 164.5,237C 170.015,231.318 175.681,225.818 181.5,220.5C 195.42,225.398 205.92,221.398 213,208.5C 214.981,201.715 214.981,195.048 213,188.5C 226.333,175.167 239.667,161.833 253,148.5C 254.289,145.649 254.789,142.649 254.5,139.5C 254.435,139.062 254.601,138.728 255,138.5C 270.62,154.895 278.453,174.229 278.5,196.5C 277.327,194.496 275.66,192.996 273.5,192C 269.5,191.333 265.5,191.333 261.5,192C 256.311,194.913 255.144,199.08 258,204.5C 258.75,205.126 259.584,205.626 260.5,206C 265.167,206.667 269.833,206.667 274.5,206C 276.35,205.31 277.684,204.144 278.5,202.5C 276.754,238.11 259.754,263.943 227.5,280C 218.126,284.302 208.292,286.802 198,287.5C 196.615,287.486 195.449,287.152 194.5,286.5C 196.173,285.657 197.34,284.324 198,282.5C 198.667,277.833 198.667,273.167 198,268.5C 195.487,264.788 191.987,263.622 187.5,265C 185.951,266.214 184.785,267.714 184,269.5C 183.333,273.5 183.333,277.5 184,281.5C 184.996,283.66 186.496,285.327 188.5,286.5C 151.888,284.783 125.721,267.116 110,233.5C 105.355,223.465 103.522,213.131 104.5,202.5C 105.29,203.794 106.29,204.961 107.5,206C 112.5,206.667 117.5,206.667 122.5,206C 126.696,203.019 127.529,199.186 125,194.5C 124.097,193.299 122.931,192.465 121.5,192C 115.13,190.487 109.464,191.653 104.5,195.5C 103.652,182.54 106.486,170.206 113,158.5C 128.489,131.516 151.656,115.849 182.5,111.5C 184.369,111.507 186.036,111.84 187.5,112.5 Z"/></g>
<g><path style="opacity:1" fill="#0c0c0c" d="M 194.5,112.5 C 195.794,113.29 196.961,114.29 198,115.5C 198.667,120.5 198.667,125.5 198,130.5C 197.626,131.416 197.126,132.25 196.5,133C 191.18,135.702 187.013,134.535 184,129.5C 183.333,125.167 183.333,120.833 184,116.5C 185.376,115.295 186.542,113.962 187.5,112.5C 189.833,111.167 192.167,111.167 194.5,112.5 Z"/></g>
<g><path style="opacity:1" fill="#040404" d="M 251.5,136.5 C 252.167,137.833 253.167,138.833 254.5,139.5C 254.789,142.649 254.289,145.649 253,148.5C 239.667,161.833 226.333,175.167 213,188.5C 214.981,195.048 214.981,201.715 213,208.5C 205.92,221.398 195.42,225.398 181.5,220.5C 175.681,225.818 170.015,231.318 164.5,237C 162.801,237.958 160.967,238.458 159,238.5C 152.546,237.259 150.546,233.593 153,227.5C 159.015,221.652 164.848,215.652 170.5,209.5C 168.887,205.996 167.887,202.329 167.5,198.5C 171.863,179.318 183.529,172.485 202.5,178C 216.167,164.333 229.833,150.667 243.5,137C 246.078,135.187 248.745,135.02 251.5,136.5 Z"/></g>
<g><path style="opacity:0.98" fill="#020101" d="M 511.5,309.5 C 511.5,314.167 511.5,318.833 511.5,323.5C 505.845,343.772 500.012,364.105 494,384.5C 487.727,394.722 478.56,399.888 466.5,400C 454.255,424.575 434.588,434.575 407.5,430C 393.92,424.335 387.254,414.168 387.5,399.5C 330.829,399.167 274.163,399.5 217.5,400.5C 206.143,423.18 187.81,433.346 162.5,431C 152.329,428.826 145.162,422.993 141,413.5C 139.458,408.955 138.624,404.289 138.5,399.5C 126.495,399.667 114.495,399.5 102.5,399C 95.0008,395.501 92.1675,389.667 94,381.5C 99,362.833 104,344.167 109,325.5C 110.771,321.361 113.938,319.361 118.5,319.5C 121.599,321.275 123.599,323.942 124.5,327.5C 119.62,346.578 114.62,365.578 109.5,384.5C 120.52,384.832 131.52,384.499 142.5,383.5C 145.411,377.599 149.078,372.265 153.5,367.5C 168.804,352.091 186.47,348.591 206.5,357C 210.712,359.711 214.046,363.211 216.5,367.5C 219.472,372.757 220.806,378.424 220.5,384.5C 258.5,384.5 296.5,384.5 334.5,384.5C 335.682,378.775 337.015,373.108 338.5,367.5C 354.319,309.226 369.985,250.893 385.5,192.5C 386.043,192.44 386.376,192.107 386.5,191.5C 369.179,190.5 351.846,190.167 334.5,190.5C 331.301,190.238 329.301,188.572 328.5,185.5C 328.443,184.391 328.11,183.391 327.5,182.5C 327.84,179.325 329.507,177.159 332.5,176C 352.5,175.333 372.5,175.333 392.5,176C 399.522,178.574 402.522,183.407 401.5,190.5C 422.826,191.333 444.159,191.833 465.5,192C 472.237,193.736 476.737,197.903 479,204.5C 479.775,230.831 480.442,257.164 481,283.5C 489.235,290.034 497.735,296.2 506.5,302C 508.314,304.479 509.981,306.979 511.5,309.5 Z"/></g>
<g><path style="opacity:1" fill="#9eb670" d="M 310.5,182.5 C 316.167,182.5 321.833,182.5 327.5,182.5C 328.11,183.391 328.443,184.391 328.5,185.5C 329.463,231.191 312.796,270.357 278.5,303C 240.183,334.324 197.183,342.991 149.5,329C 144.438,327.709 140.938,329.542 139,334.5C 136.031,343.698 134.031,353.032 133,362.5C 133.833,364.667 135.333,366.167 137.5,367C 142.823,367.499 148.156,367.666 153.5,367.5C 149.078,372.265 145.411,377.599 142.5,383.5C 131.52,384.499 120.52,384.832 109.5,384.5C 114.62,365.578 119.62,346.578 124.5,327.5C 123.599,323.942 121.599,321.275 118.5,319.5C 120.325,312.534 121.991,305.534 123.5,298.5C 160.267,321.158 198.934,324.658 239.5,309C 291.043,282.769 314.71,240.603 310.5,182.5 Z"/></g>
<g><path style="opacity:1" fill="#c1d895" d="M 328.5,185.5 C 329.301,188.572 331.301,190.238 334.5,190.5C 351.5,191.167 368.5,191.833 385.5,192.5C 369.985,250.893 354.319,309.226 338.5,367.5C 297.833,367.5 257.167,367.5 216.5,367.5C 214.046,363.211 210.712,359.711 206.5,357C 186.47,348.591 168.804,352.091 153.5,367.5C 148.156,367.666 142.823,367.499 137.5,367C 135.333,366.167 133.833,364.667 133,362.5C 134.031,353.032 136.031,343.698 139,334.5C 140.938,329.542 144.438,327.709 149.5,329C 197.183,342.991 240.183,334.324 278.5,303C 312.796,270.357 329.463,231.191 328.5,185.5 Z"/></g>
<g><path style="opacity:1" fill="#7e8e62" d="M 334.5,190.5 C 351.846,190.167 369.179,190.5 386.5,191.5C 386.376,192.107 386.043,192.44 385.5,192.5C 368.5,191.833 351.5,191.167 334.5,190.5 Z"/></g>
<g><path style="opacity:1" fill="#5a505d" d="M 189.5,190.5 C 197.493,191.325 200.66,195.658 199,203.5C 192.855,209.315 187.522,208.649 183,201.5C 182.612,196.27 184.779,192.604 189.5,190.5 Z"/></g>
<g><path style="opacity:1" fill="#0c0c0c" d="M 104.5,202.5 C 103.167,200.167 103.167,197.833 104.5,195.5C 109.464,191.653 115.13,190.487 121.5,192C 122.931,192.465 124.097,193.299 125,194.5C 127.529,199.186 126.696,203.019 122.5,206C 117.5,206.667 112.5,206.667 107.5,206C 106.29,204.961 105.29,203.794 104.5,202.5 Z"/></g>
<g><path style="opacity:1" fill="#090909" d="M 278.5,196.5 C 278.5,198.5 278.5,200.5 278.5,202.5C 277.684,204.144 276.35,205.31 274.5,206C 269.833,206.667 265.167,206.667 260.5,206C 259.584,205.626 258.75,205.126 258,204.5C 255.144,199.08 256.311,194.913 261.5,192C 265.5,191.333 269.5,191.333 273.5,192C 275.66,192.996 277.327,194.496 278.5,196.5 Z"/></g>
<g><path style="opacity:1" fill="#f4a25b" d="M 461.5,207.5 C 445.486,207.167 429.486,207.501 413.5,208.5C 410.357,218.741 407.69,229.074 405.5,239.5C 401.878,250.656 398.878,261.989 396.5,273.5C 392.053,288.353 387.72,303.353 383.5,318.5C 407.663,319.167 431.663,319.833 455.5,320.5C 426.167,320.5 396.833,320.5 367.5,320.5C 376.854,282.755 386.687,245.088 397,207.5C 418.598,206.169 440.098,206.169 461.5,207.5 Z"/></g>
<g><path style="opacity:1" fill="#f8bc66" d="M 461.5,207.5 C 462.496,207.414 463.329,207.748 464,208.5C 464.499,213.823 464.666,219.156 464.5,224.5C 450.829,224.333 437.163,224.5 423.5,225C 416.03,228.206 410.03,233.04 405.5,239.5C 407.69,229.074 410.357,218.741 413.5,208.5C 429.486,207.501 445.486,207.167 461.5,207.5 Z"/></g>
<g><path style="opacity:1" fill="#bcd4f5" d="M 464.5,239.5 C 455.167,239.5 445.833,239.5 436.5,239.5C 435.805,244.614 434.638,249.614 433,254.5C 432.223,257.429 432.39,260.263 433.5,263C 443.828,263.5 454.161,263.666 464.5,263.5C 464.5,269.167 464.5,274.833 464.5,280.5C 447.83,280.667 431.163,280.5 414.5,280C 412.09,279.242 411.09,277.575 411.5,275C 413.296,265.316 415.796,255.816 419,246.5C 421.592,243.238 424.759,240.738 428.5,239C 440.674,238.174 452.674,238.34 464.5,239.5 Z"/></g>
<g><path style="opacity:1" fill="#dae9fe" d="M 464.5,239.5 C 464.5,247.5 464.5,255.5 464.5,263.5C 454.161,263.666 443.828,263.5 433.5,263C 432.39,260.263 432.223,257.429 433,254.5C 434.638,249.614 435.805,244.614 436.5,239.5C 445.833,239.5 455.167,239.5 464.5,239.5 Z"/></g>
<g><path style="opacity:1" fill="#090909" d="M 194.5,286.5 C 192.5,286.5 190.5,286.5 188.5,286.5C 186.496,285.327 184.996,283.66 184,281.5C 183.333,277.5 183.333,273.5 184,269.5C 184.785,267.714 185.951,266.214 187.5,265C 191.987,263.622 195.487,264.788 198,268.5C 198.667,273.167 198.667,277.833 198,282.5C 197.34,284.324 196.173,285.657 194.5,286.5 Z"/></g>
<g><path style="opacity:1" fill="#fabe67" d="M 396.5,273.5 C 395.995,282.992 399.995,289.826 408.5,294C 429.167,294.333 449.833,294.667 470.5,295C 479,301.5 487.5,308 496,314.5C 496.743,316.441 496.576,318.274 495.5,320C 491.167,320.333 486.833,320.667 482.5,321C 480.356,321.792 479.023,323.292 478.5,325.5C 472.5,328.167 466.5,328.167 460.5,325.5C 459.833,322.833 458.167,321.167 455.5,320.5C 431.663,319.833 407.663,319.167 383.5,318.5C 387.72,303.353 392.053,288.353 396.5,273.5 Z"/></g>
<g><path style="opacity:0.927" fill="#000000" d="M -0.5,307.5 C -0.5,304.833 -0.5,302.167 -0.5,299.5C 1.01027,298.164 2.67694,296.997 4.5,296C 32.8333,295.333 61.1667,295.333 89.5,296C 97.0518,300.535 97.3851,305.535 90.5,311C 61.5,311.667 32.5,311.667 3.5,311C 1.64977,310.31 0.316435,309.144 -0.5,307.5 Z"/></g>
<g><path style="opacity:0.919" fill="#000000" d="M 28.5,327.5 C 46.1698,327.333 63.8365,327.5 81.5,328C 89.0673,332.58 89.4006,337.58 82.5,343C 64.1667,343.667 45.8333,343.667 27.5,343C 24.484,341.471 23.1506,338.971 23.5,335.5C 23.546,331.793 25.2126,329.127 28.5,327.5 Z"/></g>
<g><path style="opacity:1" fill="#fda85e" d="M 460.5,325.5 C 466.5,328.167 472.5,328.167 478.5,325.5C 477.875,328.97 478.875,331.804 481.5,334C 484.77,334.995 488.103,335.828 491.5,336.5C 488.632,346.991 485.632,357.324 482.5,367.5C 476.833,367.5 471.167,367.5 465.5,367.5C 452.914,351.955 437.248,348.122 418.5,356C 412.459,359.348 406.792,363.182 401.5,367.5C 391.917,367.818 382.417,367.485 373,366.5C 373.736,355.887 375.903,345.554 379.5,335.5C 404.836,335.667 430.169,335.5 455.5,335C 459.875,333.299 461.542,330.133 460.5,325.5 Z"/></g>
<g><path style="opacity:1" fill="#fa8858" d="M 379.5,335.5 C 375.903,345.554 373.736,355.887 373,366.5C 382.417,367.485 391.917,367.818 401.5,367.5C 396.876,372.415 393.543,378.082 391.5,384.5C 377.484,384.833 363.484,384.499 349.5,383.5C 354.144,367.59 358.478,351.59 362.5,335.5C 368.167,335.5 373.833,335.5 379.5,335.5 Z"/></g>
<g><path style="opacity:0.901" fill="#000000" d="M 52.5,359.5 C 60.2792,359.068 67.9458,359.568 75.5,361C 80.9961,366.149 80.6628,370.816 74.5,375C 66.0629,375.937 57.7296,375.604 49.5,374C 46.0839,368.081 47.0839,363.247 52.5,359.5 Z"/></g>
<g><path style="opacity:1" fill="#5b515e" d="M 181.5,367.5 C 202.039,365.924 209.206,374.924 203,394.5C 194.608,410.778 181.441,417.611 163.5,415C 158.938,413.373 156.105,410.206 155,405.5C 153.476,393.043 157.642,382.877 167.5,375C 172.101,372.202 176.768,369.702 181.5,367.5 Z"/></g>
<g><path style="opacity:1" fill="#5b515e" d="M 429.5,367.5 C 447.02,364.859 454.853,372.192 453,389.5C 446.701,407.795 433.868,416.628 414.5,416C 404.52,412.21 400.686,405.043 403,394.5C 407.516,381.178 416.349,372.178 429.5,367.5 Z"/></g>
<g><path style="opacity:1" fill="#9eb770" d="M 216.5,367.5 C 257.167,367.5 297.833,367.5 338.5,367.5C 337.015,373.108 335.682,378.775 334.5,384.5C 296.5,384.5 258.5,384.5 220.5,384.5C 220.806,378.424 219.472,372.757 216.5,367.5 Z"/></g>
<g><path style="opacity:1" fill="#f68657" d="M 465.5,367.5 C 471.167,367.5 476.833,367.5 482.5,367.5C 482.207,376.791 477.54,382.458 468.5,384.5C 469.006,378.531 468.006,372.865 465.5,367.5 Z"/></g>
<g><path style="opacity:1" fill="#040304" d="M 176.5,384.5 C 184.164,383.666 187.664,387 187,394.5C 182.283,401.152 177.617,401.152 173,394.5C 172.333,392.5 172.333,390.5 173,388.5C 174.376,387.295 175.542,385.962 176.5,384.5 Z"/></g>
<g><path style="opacity:1" fill="#050405" d="M 424.5,384.5 C 433.33,383.162 436.83,386.829 435,395.5C 429.885,401.075 425.219,400.742 421,394.5C 420.182,390.469 421.349,387.136 424.5,384.5 Z"/></g>
</svg>
