<?xml version="1.0" encoding="UTF-8"?>
<!DOCTYPE svg PUBLIC "-//W3C//DTD SVG 1.1//EN" "http://www.w3.org/Graphics/SVG/1.1/DTD/svg11.dtd">
<svg xmlns="http://www.w3.org/2000/svg" version="1.1" width="512px" height="512px" style="shape-rendering:geometricPrecision; text-rendering:geometricPrecision; image-rendering:optimizeQuality; fill-rule:evenodd; clip-rule:evenodd" xmlns:xlink="http://www.w3.org/1999/xlink">
<g><path style="opacity:0.978" fill="#020202" d="M 207.5,-0.5 C 213.167,-0.5 218.833,-0.5 224.5,-0.5C 228.519,1.00477 232.519,2.8381 236.5,5C 252.657,18.4846 266.657,33.8179 278.5,51C 300.033,55.6778 320.7,62.8444 340.5,72.5C 352.833,64.3333 365.167,56.1667 377.5,48C 397.595,37.8199 414.762,41.3199 429,58.5C 436.411,70.6049 437.245,83.1049 431.5,96C 455.84,105.848 464.174,123.348 456.5,148.5C 478.088,157.335 486.922,173.335 483,196.5C 482.55,198.519 481.717,200.352 480.5,202C 502.135,210.1 511.301,225.6 508,248.5C 505.53,257.277 500.697,264.444 493.5,270C 485.247,275.376 477.08,280.876 469,286.5C 467.749,298.841 466.082,311.174 464,323.5C 462.229,327.639 459.062,329.639 454.5,329.5C 452.185,328.416 450.352,326.749 449,324.5C 448.547,316.952 449.047,309.452 450.5,302C 450.167,300.833 449.833,299.667 449.5,298.5C 425.521,313.833 401.855,329.5 378.5,345.5C 369.04,352.564 358.707,358.064 347.5,362C 336.167,362.333 324.833,362.667 313.5,363C 305.537,365.644 298.537,369.811 292.5,375.5C 298.462,385.715 297.462,395.215 289.5,404C 249.167,430.833 208.833,457.667 168.5,484.5C 183.994,490.265 199.994,493.599 216.5,494.5C 304.653,499.341 372.82,465.007 421,391.5C 428.409,378.682 434.742,365.349 440,351.5C 442.546,348.814 445.713,347.814 449.5,348.5C 451.371,348.859 452.871,349.859 454,351.5C 454.667,354.5 454.667,357.5 454,360.5C 425.107,433.726 372.941,481.56 297.5,504C 284.168,507.275 270.834,509.775 257.5,511.5C 243.167,511.5 228.833,511.5 214.5,511.5C 120.909,499.071 55.7428,449.404 19,362.5C -9.67973,277.909 3.32027,200.576 58,130.5C 93.0519,90.2955 136.552,63.9622 188.5,51.5C 179.115,34.5822 181.448,19.4156 195.5,6C 199.434,3.53607 203.434,1.36941 207.5,-0.5 Z"/></g>
<g><path style="opacity:1" fill="#fcd6bc" d="M 382.5,123.5 C 381.521,125.145 380.188,126.479 378.5,127.5C 382.376,132.244 387.376,133.744 393.5,132C 405.513,126.329 417.18,120.162 428.5,113.5C 440.058,117.262 444.892,125.262 443,137.5C 441.419,143.086 438.252,147.586 433.5,151C 424.23,156.551 415.396,162.718 407,169.5C 406.398,172.221 406.565,174.887 407.5,177.5C 404.201,178.901 403.868,180.735 406.5,183C 412.107,186.159 417.774,186.159 423.5,183C 433.554,177.979 443.221,172.479 452.5,166.5C 465.086,170.635 469.919,179.302 467,192.5C 465.324,197.178 462.491,201.011 458.5,204C 449.114,209.388 440.281,215.554 432,222.5C 430.14,228.112 431.973,231.779 437.5,233.5C 437.611,234.117 437.944,234.617 438.5,235C 441.833,235.667 445.167,235.667 448.5,235C 458.331,229.969 467.998,224.802 477.5,219.5C 490.757,224.35 495.257,233.684 491,247.5C 489.6,250.902 487.433,253.736 484.5,256C 441.562,283.941 398.895,312.274 356.5,341C 345.251,347.44 333.251,349.274 320.5,346.5C 306.835,347.165 294.835,351.998 284.5,361C 283.668,361.688 283.002,361.521 282.5,360.5C 253.071,316.413 224.071,272.079 195.5,227.5C 202.692,195.401 210.192,163.401 218,131.5C 224.929,98.7315 219.262,68.3982 201,40.5C 196.933,23.2329 203.766,15.0662 221.5,16C 245.106,32.598 263.273,53.7646 276,79.5C 281.059,91.3425 285.726,103.343 290,115.5C 293.922,120.289 298.422,120.789 303.5,117C 332.897,97.2731 362.563,77.9398 392.5,59C 404.797,57.2303 413.297,62.0636 418,73.5C 419.781,82.2194 417.614,89.7194 411.5,96C 401.726,102.109 392.226,108.609 383,115.5C 382.503,118.146 382.336,120.813 382.5,123.5 Z"/></g>
<g><path style="opacity:1" fill="#927ce0" d="M 196.5,67.5 C 198.117,69.1209 199.284,71.1209 200,73.5C 201.489,78.4565 202.822,83.4565 204,88.5C 204.667,99.1667 204.667,109.833 204,120.5C 197.366,150.646 190.199,180.646 182.5,210.5C 174.63,203.918 165.963,202.752 156.5,207C 111.5,236.833 66.5,266.667 21.5,296.5C 17.5337,210.932 50.867,144.432 121.5,97C 144.828,82.6605 169.828,72.8271 196.5,67.5 Z"/></g>
<g><path style="opacity:1" fill="#726dd1" d="M 289.5,70.5 C 301.512,73.838 313.178,78.1713 324.5,83.5C 316.804,89.0288 308.97,94.3622 301,99.5C 297.454,89.6904 293.621,80.0237 289.5,70.5 Z"/></g>
<g><path style="opacity:1" fill="#f3c0a6" d="M 428.5,113.5 C 417.18,120.162 405.513,126.329 393.5,132C 387.376,133.744 382.376,132.244 378.5,127.5C 380.188,126.479 381.521,125.145 382.5,123.5C 383.962,124.458 385.295,125.624 386.5,127C 388.5,127.667 390.5,127.667 392.5,127C 400,122.082 407.667,117.416 415.5,113C 420.05,110.876 424.384,111.042 428.5,113.5 Z"/></g>
<g><path style="opacity:1" fill="#f6c2a7" d="M 452.5,166.5 C 443.221,172.479 433.554,177.979 423.5,183C 417.774,186.159 412.107,186.159 406.5,183C 403.868,180.735 404.201,178.901 407.5,177.5C 410.34,180.143 413.673,180.976 417.5,180C 425,175.082 432.667,170.416 440.5,166C 444.689,165.188 448.689,165.355 452.5,166.5 Z"/></g>
<g><path style="opacity:1" fill="#f3c0a5" d="M 477.5,219.5 C 467.998,224.802 458.331,229.969 448.5,235C 445.167,235.667 441.833,235.667 438.5,235C 437.944,234.617 437.611,234.117 437.5,233.5C 439.989,233.702 442.323,233.202 444.5,232C 451.332,227.416 458.332,223.083 465.5,219C 469.587,218.238 473.587,218.404 477.5,219.5 Z"/></g>
<g><path style="opacity:1" fill="#6ec5fd" d="M 131.5,290.5 C 129.163,287.319 126.996,283.986 125,280.5C 124.184,279.177 123.017,278.511 121.5,278.5C 124.502,276.98 126.169,274.48 126.5,271C 123.148,264.794 119.982,258.627 117,252.5C 133.33,240.925 150.164,230.258 167.5,220.5C 169.912,220.406 171.745,221.406 173,223.5C 208.333,276.833 243.667,330.167 279,383.5C 280.373,385.695 280.706,388.029 280,390.5C 264.427,401.704 248.594,412.537 232.5,423C 231.365,423.749 230.365,423.583 229.5,422.5C 200.667,379.5 171.833,336.5 143,293.5C 139.898,289.647 136.065,288.647 131.5,290.5 Z"/></g>
<g><path style="opacity:1" fill="#86dafe" d="M 121.5,278.5 C 123.017,278.511 124.184,279.177 125,280.5C 126.996,283.986 129.163,287.319 131.5,290.5C 127.707,294.967 127.54,299.634 131,304.5C 159.833,347.333 188.667,390.167 217.5,433C 194.698,447.637 172.032,462.47 149.5,477.5C 79.1334,444.637 37.3001,389.971 24,313.5C 49.5,296.667 75,279.833 100.5,263C 101.784,262.316 102.951,262.483 104,263.5C 106.888,268.776 110.388,273.609 114.5,278C 116.81,278.497 119.143,278.663 121.5,278.5 Z"/></g>
<g><path style="opacity:1" fill="#746fd4" d="M 454.5,329.5 C 453.297,335.978 451.631,342.312 449.5,348.5C 445.713,347.814 442.546,348.814 440,351.5C 434.742,365.349 428.409,378.682 421,391.5C 372.82,465.007 304.653,499.341 216.5,494.5C 221.179,494.666 225.845,494.499 230.5,494C 304.997,469.503 354.997,420.17 380.5,346C 379.906,345.536 379.239,345.369 378.5,345.5C 401.855,329.5 425.521,313.833 449.5,298.5C 449.833,299.667 450.167,300.833 450.5,302C 449.047,309.452 448.547,316.952 449,324.5C 450.352,326.749 452.185,328.416 454.5,329.5 Z"/></g>
<g><path style="opacity:1" fill="#927ce0" d="M 378.5,345.5 C 379.239,345.369 379.906,345.536 380.5,346C 354.997,420.17 304.997,469.503 230.5,494C 225.845,494.499 221.179,494.666 216.5,494.5C 199.994,493.599 183.994,490.265 168.5,484.5C 208.833,457.667 249.167,430.833 289.5,404C 297.462,395.215 298.462,385.715 292.5,375.5C 298.537,369.811 305.537,365.644 313.5,363C 324.833,362.667 336.167,362.333 347.5,362C 358.707,358.064 369.04,352.564 378.5,345.5 Z"/></g>
</svg>
