<?xml version="1.0" encoding="UTF-8"?>
<!DOCTYPE svg PUBLIC "-//W3C//DTD SVG 1.1//EN" "http://www.w3.org/Graphics/SVG/1.1/DTD/svg11.dtd">
<svg xmlns="http://www.w3.org/2000/svg" version="1.1" width="512px" height="512px" style="shape-rendering:geometricPrecision; text-rendering:geometricPrecision; image-rendering:optimizeQuality; fill-rule:evenodd; clip-rule:evenodd" xmlns:xlink="http://www.w3.org/1999/xlink">
<g><path style="opacity:0.982" fill="#000000" d="M 511.5,110.5 C 511.5,169.833 511.5,229.167 511.5,288.5C 506.82,305.342 495.82,315.508 478.5,319C 467.167,319.667 455.833,319.667 444.5,319C 442,317.513 440.334,315.346 439.5,312.5C 440.087,309.389 441.754,306.889 444.5,305C 454.833,304.667 465.167,304.333 475.5,304C 481.486,302.592 486.652,299.758 491,295.5C 492.993,293.182 494.159,290.516 494.5,287.5C 495.222,287.082 495.722,286.416 496,285.5C 496.667,228.167 496.667,170.833 496,113.5C 492.952,103.118 486.119,96.9515 475.5,95C 327.764,94.1684 180.097,94.3351 32.5,95.5C 23.4837,98.3503 17.6503,104.35 15,113.5C 14.3333,170.167 14.3333,226.833 15,283.5C 17.052,294.552 23.552,301.386 34.5,304C 162.833,304.333 291.167,304.667 419.5,305C 421.87,306.941 423.203,309.441 423.5,312.5C 423.256,315.263 421.923,317.429 419.5,319C 290.5,319.667 161.5,319.667 32.5,319C 15.1801,315.508 4.18007,305.342 -0.5,288.5C -0.5,229.167 -0.5,169.833 -0.5,110.5C 3.98523,94.5156 14.3186,84.3489 30.5,80C 180.5,79.3333 330.5,79.3333 480.5,80C 496.681,84.3489 507.015,94.5156 511.5,110.5 Z"/></g>
<g><path style="opacity:1" fill="#c1d895" d="M 494.5,287.5 C 353.166,287.667 211.833,287.5 70.5,287C 50.1022,282.269 37.2688,269.769 32,249.5C 31.1717,198.096 31.3384,146.763 32.5,95.5C 180.097,94.3351 327.764,94.1684 475.5,95C 486.119,96.9515 492.952,103.118 496,113.5C 496.667,170.833 496.667,228.167 496,285.5C 495.722,286.416 495.222,287.082 494.5,287.5 Z"/></g>
<g><path style="opacity:1" fill="#9cb867" d="M 32.5,95.5 C 31.3384,146.763 31.1717,198.096 32,249.5C 37.2688,269.769 50.1022,282.269 70.5,287C 211.833,287.5 353.166,287.667 494.5,287.5C 494.159,290.516 492.993,293.182 491,295.5C 486.652,299.758 481.486,302.592 475.5,304C 465.167,304.333 454.833,304.667 444.5,305C 441.754,306.889 440.087,309.389 439.5,312.5C 434.167,312.5 428.833,312.5 423.5,312.5C 423.203,309.441 421.87,306.941 419.5,305C 291.167,304.667 162.833,304.333 34.5,304C 23.552,301.386 17.052,294.552 15,283.5C 14.3333,226.833 14.3333,170.167 15,113.5C 17.6503,104.35 23.4837,98.3503 32.5,95.5 Z"/></g>
<g><path style="opacity:1" fill="#040403" d="M 343.5,134.5 C 360.944,132.466 372.111,139.799 377,156.5C 379.081,168.924 375.581,179.424 366.5,188C 351.63,197.238 339.13,194.738 329,180.5C 319.934,160.539 324.767,145.206 343.5,134.5 Z"/></g>
<g><path style="opacity:1" fill="#040403" d="M 166.5,138.5 C 190.948,136.482 206.448,147.148 213,170.5C 213.667,190.5 213.667,210.5 213,230.5C 207.319,255.169 191.819,266.336 166.5,264C 151.342,259.509 141.509,249.675 137,234.5C 136.333,212.5 136.333,190.5 137,168.5C 141.683,153.317 151.517,143.317 166.5,138.5 Z"/></g>
<g><path style="opacity:1" fill="#020302" d="M 262.5,138.5 C 285.466,137.316 300.299,147.65 307,169.5C 307.667,189.833 307.667,210.167 307,230.5C 301.564,255.48 286.064,266.646 260.5,264C 243.588,259.087 233.755,247.92 231,230.5C 230.333,210.833 230.333,191.167 231,171.5C 234.608,153.729 245.108,142.729 262.5,138.5 Z"/></g>
<g><path style="opacity:1" fill="#040403" d="M 400.5,138.5 C 409.417,139.515 411.917,144.182 408,152.5C 393.667,186.5 379.333,220.5 365,254.5C 356.294,258.782 351.96,256.115 352,246.5C 366.528,212.581 380.862,178.581 395,144.5C 396.36,141.977 398.193,139.977 400.5,138.5 Z"/></g>
<g><path style="opacity:1" fill="#010100" d="M 84.5,140.5 C 94.5797,140.077 104.58,140.577 114.5,142C 115.701,142.903 116.535,144.069 117,145.5C 117.667,182.833 117.667,220.167 117,257.5C 112.333,264.167 107.667,264.167 103,257.5C 102.5,223.502 102.333,189.502 102.5,155.5C 95.7163,155.92 89.0496,155.42 82.5,154C 78.1882,148.731 78.8548,144.231 84.5,140.5 Z"/></g>
<g><path style="opacity:1" fill="#bed593" d="M 346.5,149.5 C 354.212,148.034 359.379,151.034 362,158.5C 364.029,167.311 361.196,173.811 353.5,178C 345.863,178.71 341.363,175.21 340,167.5C 338.507,160.157 340.674,154.157 346.5,149.5 Z"/></g>
<g><path style="opacity:1" fill="#c0d694" d="M 168.5,153.5 C 183.753,151.696 193.586,158.029 198,172.5C 198.667,191.833 198.667,211.167 198,230.5C 192.725,246.391 181.892,252.224 165.5,248C 158.851,244.686 154.351,239.519 152,232.5C 151.333,211.833 151.333,191.167 152,170.5C 155.019,162.316 160.519,156.649 168.5,153.5 Z"/></g>
<g><path style="opacity:1" fill="#c0d794" d="M 262.5,153.5 C 277.209,151.761 287.042,157.761 292,171.5C 292.667,191.5 292.667,211.5 292,231.5C 286.364,247.054 275.531,252.554 259.5,248C 252.522,244.552 248.022,239.052 246,231.5C 245.333,211.5 245.333,191.5 246,171.5C 248.592,162.745 254.092,156.745 262.5,153.5 Z"/></g>
<g><path style="opacity:1" fill="#040503" d="M 403.5,204.5 C 419.433,203.381 429.933,210.381 435,225.5C 437.754,238.135 434.587,248.969 425.5,258C 410.301,267.39 397.467,264.89 387,250.5C 379.427,235.362 381.594,221.862 393.5,210C 396.767,207.87 400.1,206.037 403.5,204.5 Z"/></g>
<g><path style="opacity:1" fill="#bdd492" d="M 405.5,219.5 C 418.097,220.289 422.93,226.956 420,239.5C 417.227,247.93 411.727,250.43 403.5,247C 394.977,237.047 395.644,227.881 405.5,219.5 Z"/></g>
<g><path style="opacity:0.951" fill="#010100" d="M -0.5,375.5 C -0.5,366.167 -0.5,356.833 -0.5,347.5C 8.57569,339.661 18.5757,338.494 29.5,344C 50.7269,354.222 65.2269,370.389 73,392.5C 73.3333,397.5 73.6667,402.5 74,407.5C 78,411.5 82,415.5 86,419.5C 88.5372,428.635 85.0372,432.468 75.5,431C 70.3656,426.867 65.5323,422.367 61,417.5C 51.2238,419.254 42.0571,417.421 33.5,412C 18.6247,403.043 7.29134,390.876 -0.5,375.5 Z"/></g>
<g><path style="opacity:0.952" fill="#010100" d="M 511.5,347.5 C 511.5,356.833 511.5,366.167 511.5,375.5C 503.244,390.496 491.91,402.663 477.5,412C 468.943,417.421 459.776,419.254 450,417.5C 445.468,422.367 440.634,426.867 435.5,431C 425.963,432.468 422.463,428.635 425,419.5C 429,415.5 433,411.5 437,407.5C 436.189,396.745 438.522,386.745 444,377.5C 453.368,362.797 465.868,351.63 481.5,344C 492.424,338.494 502.424,339.661 511.5,347.5 Z"/></g>
<g><path style="opacity:0.933" fill="#000000" d="M 115.5,352.5 C 126.505,352.333 137.505,352.5 148.5,353C 151.516,354.529 152.849,357.029 152.5,360.5C 152.881,363.325 151.881,365.491 149.5,367C 142.254,368.391 134.921,368.891 127.5,368.5C 127.5,373.5 127.5,378.5 127.5,383.5C 133.842,383.334 140.175,383.5 146.5,384C 150.277,386.911 151.444,390.744 150,395.5C 148.786,397.049 147.286,398.215 145.5,399C 139.509,399.499 133.509,399.666 127.5,399.5C 127.92,409.247 127.42,418.914 126,428.5C 120.967,432.779 116.3,432.446 112,427.5C 111.333,403.833 111.333,380.167 112,356.5C 112.69,354.65 113.856,353.316 115.5,352.5 Z"/></g>
<g><path style="opacity:0.94" fill="#000000" d="M 166.5,352.5 C 175.839,352.334 185.173,352.5 194.5,353C 208.713,358.25 214.546,368.417 212,383.5C 209.051,391.617 203.551,397.283 195.5,400.5C 200.813,406.981 206.313,413.314 212,419.5C 213.846,430.16 209.68,433.66 199.5,430C 192.313,422.447 185.48,414.614 179,406.5C 178.93,413.939 178.263,421.272 177,428.5C 172.042,432.715 167.375,432.381 163,427.5C 162.333,403.833 162.333,380.167 163,356.5C 163.69,354.65 164.856,353.316 166.5,352.5 Z M 178.5,367.5 C 184.572,366.777 190.072,368.111 195,371.5C 198.072,378.523 195.905,383.023 188.5,385C 185.183,385.498 181.85,385.665 178.5,385.5C 178.5,379.5 178.5,373.5 178.5,367.5 Z"/></g>
<g><path style="opacity:0.926" fill="#000000" d="M 227.5,352.5 C 238.505,352.333 249.505,352.5 260.5,353C 266.259,356.892 266.926,361.559 262.5,367C 254.585,368.401 246.585,368.901 238.5,368.5C 238.5,373.5 238.5,378.5 238.5,383.5C 244.509,383.334 250.509,383.501 256.5,384C 263.347,385.866 265.18,390.032 262,396.5C 261.167,397.333 260.333,398.167 259.5,399C 252.508,399.5 245.508,399.666 238.5,399.5C 238.5,404.833 238.5,410.167 238.5,415.5C 245.841,415.334 253.174,415.5 260.5,416C 264.861,418.226 266.361,421.726 265,426.5C 264.167,428.667 262.667,430.167 260.5,431C 249.5,431.667 238.5,431.667 227.5,431C 225.185,429.891 223.685,428.057 223,425.5C 222.333,403.167 222.333,380.833 223,358.5C 223.599,355.746 225.099,353.746 227.5,352.5 Z"/></g>
<g><path style="opacity:0.919" fill="#000000" d="M 294.5,352.5 C 306.412,350.483 317.079,353.149 326.5,360.5C 330.805,365.748 330.138,370.248 324.5,374C 322.167,374.667 319.833,374.667 317.5,374C 310.778,368.252 303.444,366.919 295.5,370C 292.966,372.747 292.966,375.413 295.5,378C 304.784,381.425 313.784,385.425 322.5,390C 334.113,401.345 334.446,413.012 323.5,425C 311.803,432.504 299.469,433.504 286.5,428C 282.722,425.888 279.222,423.388 276,420.5C 271.429,410.544 274.595,406.044 285.5,407C 293.142,415.442 302.142,417.442 312.5,413C 316.255,409.557 316.255,406.224 312.5,403C 303.417,399.194 294.417,395.194 285.5,391C 275.192,380.345 274.859,369.345 284.5,358C 287.767,355.87 291.1,354.037 294.5,352.5 Z"/></g>
<g><path style="opacity:0.935" fill="#000000" d="M 344.5,352.5 C 347.518,352.335 350.518,352.502 353.5,353C 354.333,353.833 355.167,354.667 356,355.5C 357.381,364.432 357.881,373.432 357.5,382.5C 366.833,382.5 376.167,382.5 385.5,382.5C 385.334,373.827 385.5,365.16 386,356.5C 386.5,354.667 387.667,353.5 389.5,353C 395.337,351.008 399.171,352.842 401,358.5C 401.667,380.833 401.667,403.167 401,425.5C 399.171,431.158 395.337,432.992 389.5,431C 387.667,430.5 386.5,429.333 386,427.5C 385.5,417.839 385.334,408.172 385.5,398.5C 376.167,398.5 366.833,398.5 357.5,398.5C 357.666,407.173 357.5,415.84 357,424.5C 355.535,430.653 351.702,432.82 345.5,431C 343.667,430.5 342.5,429.333 342,427.5C 341.333,403.5 341.333,379.5 342,355.5C 343.045,354.627 343.878,353.627 344.5,352.5 Z"/></g>
<g><path style="opacity:1" fill="#bed493" d="M 12.5,356.5 C 19.0555,356.473 25.0555,358.306 30.5,362C 44.5519,370.63 53.8852,382.796 58.5,398.5C 58.1401,402.808 55.8068,404.308 51.5,403C 34.8626,396.03 22.3626,384.53 14,368.5C 11.8486,364.604 11.3486,360.604 12.5,356.5 Z"/></g>
<g><path style="opacity:1" fill="#bed493" d="M 490.5,356.5 C 493.187,356.336 495.854,356.503 498.5,357C 499.545,360.927 499.045,364.76 497,368.5C 488.549,384.955 475.715,396.455 458.5,403C 454.451,404.484 452.451,403.151 452.5,399C 455.824,385.993 462.824,375.326 473.5,367C 478.896,362.973 484.562,359.473 490.5,356.5 Z"/></g>
</svg>
