<?xml version="1.0" encoding="UTF-8"?>
<!DOCTYPE svg PUBLIC "-//W3C//DTD SVG 1.1//EN" "http://www.w3.org/Graphics/SVG/1.1/DTD/svg11.dtd">
<svg xmlns="http://www.w3.org/2000/svg" version="1.1" width="512px" height="512px" style="shape-rendering:geometricPrecision; text-rendering:geometricPrecision; image-rendering:optimizeQuality; fill-rule:evenodd; clip-rule:evenodd" xmlns:xlink="http://www.w3.org/1999/xlink">
<g><path style="opacity:0.996" fill="#000000" d="M 62.5,15.5 C 178.834,15.3333 295.167,15.5 411.5,16C 421.333,19.1667 427.833,25.6667 431,35.5C 431.5,50.1629 431.667,64.8295 431.5,79.5C 446.17,79.3334 460.837,79.5001 475.5,80C 478.516,81.5286 479.849,84.0286 479.5,87.5C 479.485,89.6341 478.985,91.6341 478,93.5C 473.903,99.3691 470.069,105.369 466.5,111.5C 470.401,118.297 474.568,124.963 479,131.5C 479.817,134.964 479.483,138.298 478,141.5C 477.25,142.126 476.416,142.626 475.5,143C 460.837,143.5 446.17,143.667 431.5,143.5C 431.5,148.833 431.5,154.167 431.5,159.5C 451.503,159.333 471.503,159.5 491.5,160C 494.516,161.529 495.849,164.029 495.5,167.5C 495.485,169.634 494.985,171.634 494,173.5C 489.903,179.369 486.069,185.369 482.5,191.5C 486.401,198.297 490.568,204.963 495,211.5C 495.929,215.244 495.429,218.744 493.5,222C 472.925,223.477 452.259,223.977 431.5,223.5C 431.667,307.501 431.5,391.501 431,475.5C 427.833,485.333 421.333,491.833 411.5,495C 295.167,495.667 178.833,495.667 62.5,495C 46.3333,490.833 36.1667,480.667 32,464.5C 31.3333,325.167 31.3333,185.833 32,46.5C 36.3489,30.3186 46.5156,19.9852 62.5,15.5 Z"/></g>
<g><path style="opacity:1" fill="#98ba58" d="M 65.5,31.5 C 70.1667,31.5 74.8333,31.5 79.5,31.5C 79.5,159.5 79.5,287.5 79.5,415.5C 67.8383,413.779 57.3383,416.446 48,423.5C 47.3333,298.833 47.3333,174.167 48,49.5C 51.3531,40.9815 57.1865,34.9815 65.5,31.5 Z"/></g>
<g><path style="opacity:1" fill="#c1d895" d="M 95.5,31.5 C 166.501,31.3333 237.501,31.5 308.5,32C 318.667,42.1667 328.833,52.3333 339,62.5C 333.482,75.7838 334.815,88.4505 343,100.5C 350.785,108.642 360.285,112.142 371.5,111C 375.926,109.959 380.259,108.959 384.5,108C 394.667,118.167 404.833,128.333 415,138.5C 415.667,228.167 415.667,317.833 415,407.5C 413.167,410.667 410.667,413.167 407.5,415C 303.501,415.5 199.501,415.667 95.5,415.5C 95.5,287.5 95.5,159.5 95.5,31.5 Z"/></g>
<g><path style="opacity:1" fill="#f9b33f" d="M 331.5,32.5 C 343.996,31.8334 356.662,31.5001 369.5,31.5C 382.924,31.3505 396.258,31.8505 409.5,33C 411.709,34.8734 413.542,37.04 415,39.5C 415.667,64.8333 415.667,90.1667 415,115.5C 408.667,109.167 402.333,102.833 396,96.5C 396.959,92.2592 397.959,87.9259 399,83.5C 398.739,58.2445 385.906,46.4111 360.5,48C 357.258,49.6395 353.924,50.6395 350.5,51C 344.298,44.6306 337.965,38.4639 331.5,32.5 Z"/></g>
<g><path style="opacity:1" fill="#e5992c" d="M 362.5,63.5 C 378.644,63.1369 385.144,70.8036 382,86.5C 376.039,95.2827 368.206,97.4493 358.5,93C 351.086,86.7052 349.586,79.2052 354,70.5C 356.441,67.5464 359.275,65.2131 362.5,63.5 Z"/></g>
<g><path style="opacity:1" fill="#020201" d="M 244.5,79.5 C 278.568,77.0291 303.901,90.5291 320.5,120C 358.717,127.881 379.717,151.215 383.5,190C 382.719,219.246 369.719,241.079 344.5,255.5C 343.667,285.494 343.167,315.494 343,345.5C 342.727,347.329 341.893,348.829 340.5,350C 284.558,351.654 228.558,351.988 172.5,351C 171.069,350.535 169.903,349.701 169,348.5C 167.69,318.895 167.023,289.228 167,259.5C 129.548,242.266 114.548,213.266 122,172.5C 133.576,139.774 156.743,121.774 191.5,118.5C 203.308,97.4394 220.975,84.4394 244.5,79.5 Z"/></g>
<g><path style="opacity:1" fill="#01a336" d="M 431.5,95.5 C 439.84,95.3336 448.173,95.5003 456.5,96C 452.644,100.515 449.644,105.515 447.5,111C 449.203,117.043 452.203,122.376 456.5,127C 448.173,127.5 439.84,127.666 431.5,127.5C 431.5,116.833 431.5,106.167 431.5,95.5 Z"/></g>
<g><path style="opacity:1" fill="#e9e9e7" d="M 246.5,95.5 C 266.149,93.881 282.982,99.881 297,113.5C 301.957,120.58 306.79,127.747 311.5,135C 344.864,138.199 363.531,156.365 367.5,189.5C 367.637,206.602 361.637,221.102 349.5,233C 342.42,237.957 335.253,242.79 328,247.5C 327.5,266.164 327.333,284.83 327.5,303.5C 319.5,303.5 311.5,303.5 303.5,303.5C 303.666,294.494 303.5,285.494 303,276.5C 299.987,271.465 295.82,270.298 290.5,273C 289.299,273.903 288.465,275.069 288,276.5C 287.5,285.494 287.334,294.494 287.5,303.5C 279.5,303.5 271.5,303.5 263.5,303.5C 263.666,294.494 263.5,285.494 263,276.5C 259.987,271.465 255.82,270.298 250.5,273C 249.299,273.903 248.465,275.069 248,276.5C 247.5,285.494 247.334,294.494 247.5,303.5C 239.5,303.5 231.5,303.5 223.5,303.5C 223.666,294.494 223.5,285.494 223,276.5C 219.987,271.465 215.82,270.298 210.5,273C 209.299,273.903 208.465,275.069 208,276.5C 207.5,285.494 207.334,294.494 207.5,303.5C 199.5,303.5 191.5,303.5 183.5,303.5C 183.667,285.83 183.5,268.164 183,250.5C 182.535,249.069 181.701,247.903 180.5,247C 146.376,236.194 131.876,213.027 137,177.5C 147.446,148.341 168.279,134.175 199.5,135C 203.624,129.923 207.124,124.423 210,118.5C 219.399,106.387 231.566,98.7201 246.5,95.5 Z"/></g>
<g><path style="opacity:1" fill="#009bf6" d="M 431.5,175.5 C 445.171,175.333 458.837,175.5 472.5,176C 468.644,180.515 465.644,185.515 463.5,191C 465.203,197.043 468.203,202.376 472.5,207C 458.837,207.5 445.171,207.667 431.5,207.5C 431.5,196.833 431.5,186.167 431.5,175.5 Z"/></g>
<g><path style="opacity:1" fill="#050505" d="M 237.5,225.5 C 249.505,225.333 261.505,225.5 273.5,226C 278.543,230.712 283.877,235.045 289.5,239C 295.488,242.494 301.821,245.161 308.5,247C 312.926,252.441 312.259,257.108 306.5,261C 291.493,259.496 278.826,253.163 268.5,242C 259.833,241.333 251.167,241.333 242.5,242C 232.192,253.154 219.525,259.488 204.5,261C 199.695,257.911 198.528,253.744 201,248.5C 207.781,245.345 214.615,242.178 221.5,239C 227.317,235.011 232.651,230.511 237.5,225.5 Z"/></g>
<g><path style="opacity:1" fill="#cacbca" d="M 183.5,319.5 C 231.5,319.5 279.5,319.5 327.5,319.5C 327.5,324.833 327.5,330.167 327.5,335.5C 279.5,335.5 231.5,335.5 183.5,335.5C 183.5,330.167 183.5,324.833 183.5,319.5 Z"/></g>
<g><path style="opacity:1" fill="#030301" d="M 196.5,375.5 C 207.245,375.071 217.912,375.571 228.5,377C 231.848,380.419 232.348,384.252 230,388.5C 228.829,389.893 227.329,390.727 225.5,391C 215.833,391.667 206.167,391.667 196.5,391C 189.889,385.798 189.889,380.631 196.5,375.5 Z"/></g>
<g><path style="opacity:1" fill="#010100" d="M 252.5,375.5 C 275.502,375.333 298.502,375.5 321.5,376C 327.462,378.405 328.962,382.571 326,388.5C 324.829,389.893 323.329,390.727 321.5,391C 298.5,391.667 275.5,391.667 252.5,391C 245.889,385.798 245.889,380.631 252.5,375.5 Z"/></g>
<g><path style="opacity:1" fill="#97b958" d="M 414.5,428.5 C 415.661,442.661 415.827,456.994 415,471.5C 411.829,478.002 406.663,480.669 399.5,479.5C 399.5,463.5 399.5,447.5 399.5,431.5C 404.894,431.876 409.894,430.876 414.5,428.5 Z"/></g>
<g><path style="opacity:1" fill="#e9e9e7" d="M 65.5,431.5 C 171.5,431.5 277.5,431.5 383.5,431.5C 383.5,436.833 383.5,442.167 383.5,447.5C 318.499,447.333 253.499,447.5 188.5,448C 183.465,451.013 182.298,455.18 185,460.5C 185.903,461.701 187.069,462.535 188.5,463C 253.499,463.5 318.499,463.667 383.5,463.5C 383.5,468.833 383.5,474.167 383.5,479.5C 277.499,479.667 171.499,479.5 65.5,479C 48.6969,471.591 43.8636,459.424 51,442.5C 54.9507,437.466 59.7841,433.799 65.5,431.5 Z"/></g>
<g><path style="opacity:1" fill="#020202" d="M 68.5,447.5 C 86.1698,447.333 103.836,447.5 121.5,448C 127.448,450.433 128.948,454.6 126,460.5C 124.829,461.893 123.329,462.727 121.5,463C 103.833,463.667 86.1667,463.667 68.5,463C 63.4648,459.987 62.2981,455.82 65,450.5C 66.1451,449.364 67.3117,448.364 68.5,447.5 Z"/></g>
<g><path style="opacity:1" fill="#070707" d="M 148.5,447.5 C 153.93,447.161 159.264,447.661 164.5,449C 167.769,452.453 168.269,456.286 166,460.5C 164.829,461.893 163.329,462.727 161.5,463C 156.382,463.888 151.382,463.555 146.5,462C 142.128,456.408 142.794,451.575 148.5,447.5 Z"/></g>
</svg>
