<?xml version="1.0" encoding="UTF-8"?>
<!DOCTYPE svg PUBLIC "-//W3C//DTD SVG 1.1//EN" "http://www.w3.org/Graphics/SVG/1.1/DTD/svg11.dtd">
<svg xmlns="http://www.w3.org/2000/svg" version="1.1" width="512px" height="512px" style="shape-rendering:geometricPrecision; text-rendering:geometricPrecision; image-rendering:optimizeQuality; fill-rule:evenodd; clip-rule:evenodd" xmlns:xlink="http://www.w3.org/1999/xlink">
<g><path style="opacity:0.97" fill="#010100" d="M 97.5,-0.5 C 106.167,-0.5 114.833,-0.5 123.5,-0.5C 126.049,1.55577 127.549,4.22244 128,7.5C 130.556,38.8431 133.223,70.1764 136,101.5C 138.746,68.7942 141.746,36.1275 145,3.5C 146.376,2.29493 147.542,0.961599 148.5,-0.5C 157.167,-0.5 165.833,-0.5 174.5,-0.5C 176.696,0.854084 178.196,2.85408 179,5.5C 181.777,37.4908 184.444,69.4908 187,101.5C 189.945,69.1591 192.945,36.8257 196,4.5C 196.997,2.67694 198.164,1.01027 199.5,-0.5C 208.167,-0.5 216.833,-0.5 225.5,-0.5C 227.901,0.745833 229.401,2.74583 230,5.5C 232.832,36.4848 235.499,67.4848 238,98.5C 238.667,116.833 238.667,135.167 238,153.5C 232.381,174.889 218.548,186.222 196.5,187.5C 202.24,284.151 207.907,380.817 213.5,477.5C 213.09,485.485 210.09,492.318 204.5,498C 195.532,504.988 185.532,509.488 174.5,511.5C 165.833,511.5 157.167,511.5 148.5,511.5C 134.833,509.247 123.333,502.914 114,492.5C 111.594,488.116 110.094,483.449 109.5,478.5C 115.424,381.54 121.09,284.54 126.5,187.5C 104.251,185.794 90.4174,174.128 85,152.5C 84.1738,131.479 84.5071,110.479 86,89.5C 88.2782,61.8286 90.6115,34.1619 93,6.5C 93.5303,3.41501 95.0303,1.08167 97.5,-0.5 Z"/></g>
<g><path style="opacity:0.966" fill="#010101" d="M 336.5,-0.5 C 345.167,-0.5 353.833,-0.5 362.5,-0.5C 401.036,9.19631 426.202,33.1963 438,71.5C 451.233,118.718 441.733,160.551 409.5,197C 402.455,203.607 394.621,209.107 386,213.5C 390.58,301.691 395.747,389.858 401.5,478C 399.051,492.127 391.051,501.794 377.5,507C 372.423,508.68 367.423,510.18 362.5,511.5C 353.833,511.5 345.167,511.5 336.5,511.5C 325.967,509.573 316.3,505.406 307.5,499C 300.808,493.434 297.474,486.267 297.5,477.5C 303.116,389.235 308.116,301.069 312.5,213C 283.035,196.623 264.869,171.79 258,138.5C 250.61,102.453 256.944,69.1198 277,38.5C 291.876,17.8198 311.709,4.81984 336.5,-0.5 Z"/></g>
<g><path style="opacity:1" fill="#bfd694" d="M 109.5,16.5 C 111.164,17.9488 111.998,19.9488 112,22.5C 114.005,53.2291 116.672,83.8958 120,114.5C 121.167,115.667 122.333,116.833 123.5,118C 131.833,118.667 140.167,118.667 148.5,118C 150.378,116.457 151.878,114.624 153,112.5C 154.953,80.4004 157.786,48.4004 161.5,16.5C 165.487,48.0074 168.32,79.6741 170,111.5C 170.883,114.102 172.383,116.269 174.5,118C 182.833,118.667 191.167,118.667 199.5,118C 201.552,117.07 203.052,115.57 204,113.5C 206.337,81.1188 209.171,48.7854 212.5,16.5C 215.904,44.7374 218.737,73.0707 221,101.5C 221.667,117.167 221.667,132.833 221,148.5C 218.5,160.333 211.333,167.5 199.5,170C 194.167,170.333 188.833,170.667 183.5,171C 179.616,173.219 177.949,176.553 178.5,181C 184.923,281.135 190.423,381.302 195,481.5C 192.404,485.39 188.904,488.223 184.5,490C 166.114,497.11 148.448,495.776 131.5,486C 129.951,484.786 128.785,483.286 128,481.5C 132.94,380.65 138.44,279.816 144.5,179C 144.6,175.196 142.934,172.529 139.5,171C 128.871,172.159 119.205,169.826 110.5,164C 105.957,159.415 103.124,153.915 102,147.5C 101.333,133.5 101.333,119.5 102,105.5C 104.531,75.8291 107.031,46.1624 109.5,16.5 Z"/></g>
<g><path style="opacity:1" fill="#c0d795" d="M 339.5,16.5 C 372.282,15.4711 396.782,29.1378 413,57.5C 431.739,95.0426 430.739,132.043 410,168.5C 400.184,183.308 387.017,194.141 370.5,201C 369.789,202.255 368.956,203.421 368,204.5C 373.312,296.812 378.312,389.145 383,481.5C 373.54,490.826 362.04,495.159 348.5,494.5C 336.521,494.897 326.021,491.23 317,483.5C 315.935,480.625 315.435,477.625 315.5,474.5C 320.257,392.497 325.09,310.497 330,228.5C 330.667,220.167 330.667,211.833 330,203.5C 300.636,189.452 282.303,166.452 275,134.5C 267.865,100.497 274.865,69.8302 296,42.5C 307.724,29.0599 322.224,20.3932 339.5,16.5 Z"/></g>
<g><path style="opacity:1" fill="#0a0403" d="M 346.5,33.5 C 358.776,33.0923 369.776,36.5923 379.5,44C 399.86,62.2281 409.694,85.0614 409,112.5C 403.333,121.833 397.667,121.833 392,112.5C 392.189,94.5624 386.856,78.5624 376,64.5C 367.956,55.2601 357.789,50.4268 345.5,50C 338.671,44.0031 339.004,38.5031 346.5,33.5 Z"/></g>
<g><path style="opacity:1" fill="#0e0503" d="M 397.5,127.5 C 405.448,126.949 409.282,130.616 409,138.5C 404.606,145.698 399.273,146.365 393,140.5C 391.243,134.825 392.743,130.492 397.5,127.5 Z"/></g>
<g><path style="opacity:1" fill="#151210" d="M 511.5,208.5 C 511.5,211.5 511.5,214.5 511.5,217.5C 510.038,218.458 508.705,219.624 507.5,221C 488,221.833 477.833,232 477,251.5C 472.599,256.028 467.599,256.694 462,253.5C 460.02,248.364 458.687,243.031 458,237.5C 452.21,226.516 443.043,221.016 430.5,221C 424.245,216.052 423.912,210.718 429.5,205C 449.333,203.833 459.833,193.333 461,173.5C 466.718,167.912 472.052,168.245 477,174.5C 478.093,192.592 487.593,202.425 505.5,204C 508.146,204.804 510.146,206.304 511.5,208.5 Z M 468.5,205.5 C 471.297,207.795 473.964,210.295 476.5,213C 473.333,214.833 470.833,217.333 469,220.5C 466.5,218 464,215.5 461.5,213C 464.039,210.63 466.372,208.13 468.5,205.5 Z"/></g>
<g><path style="opacity:1" fill="#141210" d="M -0.5,225.5 C -0.5,222.833 -0.5,220.167 -0.5,217.5C 0.646381,215.525 2.31305,214.025 4.5,213C 23.755,211.41 33.9217,200.91 35,181.5C 40.3574,177.213 45.3574,177.547 50,182.5C 50.0494,196.126 56.2161,205.626 68.5,211C 72.899,211.817 77.2324,212.817 81.5,214C 86.7123,218.963 86.7123,223.963 81.5,229C 61.6762,230.157 51.1762,240.657 50,260.5C 45.2814,265.366 40.2814,265.699 35,261.5C 33.4883,241.322 22.655,230.488 2.5,229C 1.36362,227.855 0.363622,226.688 -0.5,225.5 Z M 49.5,220.5 C 47.5,222.833 45.5,225.167 43.5,227.5C 42.8826,227.611 42.3826,227.944 42,228.5C 39.0651,226.273 37.0651,223.606 36,220.5C 38.0165,218.316 40.1831,216.316 42.5,214.5C 44.2593,217.266 46.5927,219.266 49.5,220.5 Z"/></g>
<g><path style="opacity:0.984" fill="#9b9981" d="M 49.5,220.5 C 50.525,220.897 50.6917,221.563 50,222.5C 48,224.5 46,226.5 44,228.5C 43.6012,228.272 43.4346,227.938 43.5,227.5C 45.5,225.167 47.5,222.833 49.5,220.5 Z"/></g>
<g><path style="opacity:1" fill="#050301" d="M 289.5,272.5 C 289.5,278.167 289.5,283.833 289.5,289.5C 283.833,289.5 278.167,289.5 272.5,289.5C 272.5,284.167 272.5,278.833 272.5,273.5C 266.833,273.5 261.167,273.5 255.5,273.5C 255.5,278.833 255.5,284.167 255.5,289.5C 249.5,289.5 243.5,289.5 237.5,289.5C 237.5,283.833 237.5,278.167 237.5,272.5C 243.5,272.5 249.5,272.5 255.5,272.5C 255.5,266.833 255.5,261.167 255.5,255.5C 261.5,255.5 267.5,255.5 273.5,255.5C 273.5,261.167 273.5,266.833 273.5,272.5C 278.833,272.5 284.167,272.5 289.5,272.5 Z M 272.5,289.5 C 266.833,289.5 261.167,289.5 255.5,289.5C 255.5,284.167 255.5,278.833 255.5,273.5C 261.167,273.5 266.833,273.5 272.5,273.5C 272.5,278.833 272.5,284.167 272.5,289.5 Z"/></g>
<g><path style="opacity:0.247" fill="#cf6f70" d="M 289.5,272.5 C 290.49,278.31 290.823,284.31 290.5,290.5C 284.833,290.5 279.167,290.5 273.5,290.5C 267.5,290.5 261.5,290.5 255.5,290.5C 249.31,290.823 243.31,290.49 237.5,289.5C 243.5,289.5 249.5,289.5 255.5,289.5C 261.167,289.5 266.833,289.5 272.5,289.5C 278.167,289.5 283.833,289.5 289.5,289.5C 289.5,283.833 289.5,278.167 289.5,272.5 Z"/></g>
<g><path style="opacity:1" fill="#0a0b10" d="M 255.5,290.5 C 261.5,290.5 267.5,290.5 273.5,290.5C 273.5,296.167 273.5,301.833 273.5,307.5C 267.5,307.5 261.5,307.5 255.5,307.5C 255.5,301.833 255.5,296.167 255.5,290.5 Z"/></g>
<g><path style="opacity:1" fill="#060604" d="M 338.5,459.5 C 345.832,460.604 353.166,460.771 360.5,460C 368.5,465.333 368.5,470.667 360.5,476C 353.151,477.892 345.817,477.892 338.5,476C 331.899,470.504 331.899,465.004 338.5,459.5 Z"/></g>
<g><path style="opacity:1" fill="#050604" d="M 150.5,459.5 C 157.834,460.663 165.167,460.83 172.5,460C 177.069,462.541 178.569,466.375 177,471.5C 176.535,472.931 175.701,474.097 174.5,475C 166.601,477.809 158.601,478.142 150.5,476C 145.931,473.459 144.431,469.625 146,464.5C 147.366,462.638 148.866,460.972 150.5,459.5 Z"/></g>
</svg>
