<?xml version="1.0" encoding="UTF-8"?>
<!DOCTYPE svg PUBLIC "-//W3C//DTD SVG 1.1//EN" "http://www.w3.org/Graphics/SVG/1.1/DTD/svg11.dtd">
<svg xmlns="http://www.w3.org/2000/svg" version="1.1" width="512px" height="512px" style="shape-rendering:geometricPrecision; text-rendering:geometricPrecision; image-rendering:optimizeQuality; fill-rule:evenodd; clip-rule:evenodd" xmlns:xlink="http://www.w3.org/1999/xlink">
<g><path style="opacity:0.968" fill="#010101" d="M 163.5,-0.5 C 174.167,-0.5 184.833,-0.5 195.5,-0.5C 223.969,4.48467 248.803,16.818 270,36.5C 271.698,39.3963 271.864,42.3963 270.5,45.5C 267.454,47.4593 264.121,48.2926 260.5,48C 239.453,28.979 214.787,17.8123 186.5,14.5C 184.833,14.8333 183.167,15.1667 181.5,15.5C 183.509,18.1964 185.509,20.8631 187.5,23.5C 206.809,49.815 226.142,76.1483 245.5,102.5C 253.02,104.804 260.687,106.471 268.5,107.5C 283.324,111.098 298.324,113.598 313.5,115C 305.111,100.385 295.611,86.5513 285,73.5C 284.333,71.8333 284.333,70.1667 285,68.5C 286.802,67.2107 287.969,65.5441 288.5,63.5C 293.757,62.0916 297.924,63.7583 301,68.5C 313.164,84.149 323.83,100.816 333,118.5C 347.056,127.867 359.723,138.867 371,151.5C 361.682,107.435 374.849,71.935 410.5,45C 430.466,31.5199 452.133,21.5199 475.5,15C 478.916,14.1067 482.083,14.6067 485,16.5C 498.744,40.2365 507.577,65.5699 511.5,92.5C 511.5,100.5 511.5,108.5 511.5,116.5C 508.165,141.329 496.832,161.829 477.5,178C 457.867,193.65 435.867,204.817 411.5,211.5C 439.524,284.903 432.357,354.57 390,420.5C 351.315,473.099 299.482,503.433 234.5,511.5C 220.833,511.5 207.167,511.5 193.5,511.5C 118.12,501.922 61.6204,464.256 24,398.5C 10.8554,373.229 2.68871,346.562 -0.5,318.5C -0.5,304.833 -0.5,291.167 -0.5,277.5C 0.270339,271.156 1.60367,264.823 3.5,258.5C 5.36359,257.007 7.53026,256.34 10,256.5C 12.981,256.081 15.3144,257.081 17,259.5C 6.96713,331.739 27.8005,393.239 79.5,444C 141.072,496.112 210.072,508.779 286.5,482C 353.213,453.425 394.046,403.592 409,332.5C 419.962,258.379 397.796,196.213 342.5,146C 338.167,142.833 333.833,139.667 329.5,136.5C 323.014,141.908 316.347,147.075 309.5,152C 363.735,190.641 389.568,243.474 387,310.5C 380.671,373.382 350.171,420.215 295.5,451C 263.392,467.463 229.392,473.796 193.5,470C 189.177,468.866 187.177,466.033 187.5,461.5C 188.198,459.333 189.531,457.5 191.5,456C 199.493,455.5 207.493,455.334 215.5,455.5C 284.572,451.904 333.072,418.57 361,355.5C 371.909,325.856 374.409,295.522 368.5,264.5C 355.79,269.286 344.623,276.953 335,287.5C 332.19,291.453 330.19,295.787 329,300.5C 328.333,307.167 328.333,313.833 329,320.5C 335.223,342.057 331.223,361.39 317,378.5C 311.22,385.122 304.72,390.788 297.5,395.5C 268.758,411.213 252.258,402.879 248,370.5C 246.769,347.86 246.102,325.193 246,302.5C 245.654,297.278 244.154,292.445 241.5,288C 228.846,289.06 216.179,290.394 203.5,292C 174.978,295.454 157.478,283.287 151,255.5C 148.02,240.783 151.02,227.45 160,215.5C 165.316,209.017 171.149,203.017 177.5,197.5C 154.732,194.359 133.899,186.359 115,173.5C 94.1,190.307 78.2666,210.974 67.5,235.5C 76.5038,249.503 85.0038,263.837 93,278.5C 100.993,282.054 109.159,285.221 117.5,288C 128.974,294.464 132.474,303.964 128,316.5C 122.275,330.284 116.275,343.951 110,357.5C 108.632,360.738 108.299,364.072 109,367.5C 120.741,385.536 125.074,405.203 122,426.5C 132.314,434.077 143.481,440.243 155.5,445C 158.186,447.546 159.186,450.713 158.5,454.5C 155.489,459.003 151.489,460.17 146.5,458C 78.5348,426.286 42.8681,372.786 39.5,297.5C 40.6505,243.711 61.3172,199.211 101.5,164C 71.2481,137.989 47.9148,106.822 31.5,70.5C 32.7217,65.7593 35.3884,61.926 39.5,59C 65.6879,36.8951 95.0212,19.8951 127.5,8C 139.41,4.18939 151.41,1.35606 163.5,-0.5 Z"/></g>
<g><path style="opacity:1" fill="#07af28" d="M 270.5,45.5 C 276.833,51.1667 282.833,57.1667 288.5,63.5C 287.969,65.5441 286.802,67.2107 285,68.5C 284.333,70.1667 284.333,71.8333 285,73.5C 295.611,86.5513 305.111,100.385 313.5,115C 298.324,113.598 283.324,111.098 268.5,107.5C 252.618,80.6185 232.618,57.1185 208.5,37C 201.783,31.98 194.783,27.48 187.5,23.5C 185.509,20.8631 183.509,18.1964 181.5,15.5C 183.167,15.1667 184.833,14.8333 186.5,14.5C 214.787,17.8123 239.453,28.979 260.5,48C 264.121,48.2926 267.454,47.4593 270.5,45.5 Z"/></g>
<g><path style="opacity:1" fill="#47c85a" d="M 157.5,15.5 C 159.792,15.2436 161.959,15.5769 164,16.5C 183.833,43.6667 203.667,70.8333 223.5,98C 204.776,95.323 186.109,91.9897 167.5,88C 165.714,87.2155 164.214,86.0488 163,84.5C 149.36,65.3599 135.527,46.3599 121.5,27.5C 133.108,22.0752 145.108,18.0752 157.5,15.5 Z"/></g>
<g><path style="opacity:1" fill="#47c75a" d="M 187.5,23.5 C 194.783,27.48 201.783,31.98 208.5,37C 232.618,57.1185 252.618,80.6185 268.5,107.5C 260.687,106.471 253.02,104.804 245.5,102.5C 226.142,76.1483 206.809,49.815 187.5,23.5 Z"/></g>
<g><path style="opacity:1" fill="#47c75a" d="M 105.5,33.5 C 107.017,33.5106 108.184,34.1772 109,35.5C 120.36,50.6932 131.527,66.0266 142.5,81.5C 140.579,82.641 138.579,82.8077 136.5,82C 109.774,76.9215 83.1074,71.5881 56.5,66C 71.8684,53.6535 88.2018,42.8202 105.5,33.5 Z"/></g>
<g><path style="opacity:1" fill="#07aa27" d="M 453.5,64.5 C 451.315,57.1315 448.315,50.1315 444.5,43.5C 450.839,40.0012 457.506,37.0012 464.5,34.5C 464.833,35 465.167,35.5 465.5,36C 461.395,45.4883 457.395,54.9883 453.5,64.5 Z"/></g>
<g><path style="opacity:1" fill="#06ad27" d="M 459.5,115.5 C 459.826,107.316 459.492,99.3159 458.5,91.5C 465.12,74.2607 472.287,57.2607 480,40.5C 490.033,59.5634 494.867,79.73 494.5,101C 482.764,105.743 471.097,110.576 459.5,115.5 Z"/></g>
<g><path style="opacity:1" fill="#48c85a" d="M 444.5,43.5 C 448.315,50.1315 451.315,57.1315 453.5,64.5C 446.015,82.1408 438.515,99.8075 431,117.5C 423.833,100.5 416.667,83.5 409.5,66.5C 419.849,56.8159 431.516,49.1492 444.5,43.5 Z"/></g>
<g><path style="opacity:1" fill="#47c75a" d="M 397.5,79.5 C 398.75,79.5774 399.583,80.244 400,81.5C 407.599,100.132 415.099,118.799 422.5,137.5C 415.612,154.943 408.446,172.276 401,189.5C 390.479,168.751 384.979,146.751 384.5,123.5C 383.99,107.367 388.323,92.7005 397.5,79.5 Z"/></g>
<g><path style="opacity:1" fill="#47c75a" d="M 54.5,81.5 C 83.2633,86.4761 111.93,91.9761 140.5,98C 124.245,109.711 108.078,121.544 92,133.5C 77.276,117.698 64.776,100.364 54.5,81.5 Z"/></g>
<g><path style="opacity:1" fill="#45c257" d="M 458.5,91.5 C 459.492,99.3159 459.826,107.316 459.5,115.5C 455.362,116.77 451.362,118.437 447.5,120.5C 447.167,120.167 446.833,119.833 446.5,119.5C 450.33,109.984 454.33,100.65 458.5,91.5 Z"/></g>
<g><path style="opacity:1" fill="#48c95b" d="M 160.5,101.5 C 181.19,105.471 201.857,109.638 222.5,114C 196.011,133.744 169.344,153.244 142.5,172.5C 127.875,165.361 114.875,156.028 103.5,144.5C 122.235,129.758 141.235,115.425 160.5,101.5 Z"/></g>
<g><path style="opacity:1" fill="#07ae27" d="M 423.5,175.5 C 438.461,164.878 448.794,150.878 454.5,133.5C 467.807,127.848 481.141,122.182 494.5,116.5C 493.647,128.877 489.481,140.21 482,150.5C 467.507,167.34 450.007,180.173 429.5,189C 425.044,190.541 420.711,192.374 416.5,194.5C 416.167,194.167 415.833,193.833 415.5,193.5C 417.996,187.315 420.663,181.315 423.5,175.5 Z"/></g>
<g><path style="opacity:1" fill="#48c95a" d="M 275.5,124.5 C 249.238,149.536 218.905,168.369 184.5,181C 181.518,181.498 178.518,181.665 175.5,181.5C 170.314,181.396 165.314,180.396 160.5,178.5C 187.669,158.172 215.002,138.005 242.5,118C 253.59,119.939 264.59,122.106 275.5,124.5 Z"/></g>
<g><path style="opacity:1" fill="#08ae27" d="M 275.5,124.5 C 287.3,126.369 298.967,128.702 310.5,131.5C 278.78,158.023 242.447,174.856 201.5,182C 192.657,182.824 183.99,182.657 175.5,181.5C 178.518,181.665 181.518,181.498 184.5,181C 218.905,168.369 249.238,149.536 275.5,124.5 Z"/></g>
<g><path style="opacity:1" fill="#46c659" d="M 454.5,133.5 C 448.794,150.878 438.461,164.878 423.5,175.5C 427.768,163.626 432.602,151.959 438,140.5C 443.389,137.871 448.889,135.538 454.5,133.5 Z"/></g>
<g><path style="opacity:1" fill="#95d429" d="M 327.5,272.5 C 323.538,244.443 313.038,219.11 296,196.5C 288.914,188.624 282.081,180.624 275.5,172.5C 281.969,169.098 288.303,165.431 294.5,161.5C 326.19,180.361 348.69,207.028 362,241.5C 363.15,243.754 363.484,246.087 363,248.5C 350.466,255.547 338.632,263.547 327.5,272.5 Z"/></g>
<g><path style="opacity:1" fill="#96c8e7" d="M 297.5,395.5 C 276.63,424.275 249.297,444.275 215.5,455.5C 207.493,455.334 199.493,455.5 191.5,456C 189.531,457.5 188.198,459.333 187.5,461.5C 177.559,460.265 167.892,457.931 158.5,454.5C 159.186,450.713 158.186,447.546 155.5,445C 143.481,440.243 132.314,434.077 122,426.5C 125.074,405.203 120.741,385.536 109,367.5C 108.299,364.072 108.632,360.738 110,357.5C 116.275,343.951 122.275,330.284 128,316.5C 132.474,303.964 128.974,294.464 117.5,288C 109.159,285.221 100.993,282.054 93,278.5C 85.0038,263.837 76.5038,249.503 67.5,235.5C 78.2666,210.974 94.1,190.307 115,173.5C 133.899,186.359 154.732,194.359 177.5,197.5C 171.149,203.017 165.316,209.017 160,215.5C 151.02,227.45 148.02,240.783 151,255.5C 157.478,283.287 174.978,295.454 203.5,292C 216.179,290.394 228.846,289.06 241.5,288C 244.154,292.445 245.654,297.278 246,302.5C 246.102,325.193 246.769,347.86 248,370.5C 252.258,402.879 268.758,411.213 297.5,395.5 Z"/></g>
<g><path style="opacity:1" fill="#b9e96b" d="M 275.5,172.5 C 282.081,180.624 288.914,188.624 296,196.5C 313.038,219.11 323.538,244.443 327.5,272.5C 324.523,276.325 321.689,280.325 319,284.5C 313.824,295.273 312.157,306.607 314,318.5C 316.078,328.411 316.744,338.411 316,348.5C 310.174,366.331 298.674,379.164 281.5,387C 271.949,390.795 266.115,387.628 264,377.5C 263.24,373.181 262.573,368.848 262,364.5C 261.667,343.833 261.333,323.167 261,302.5C 260.332,293.813 257.665,285.813 253,278.5C 249.153,274.576 244.486,272.576 239,272.5C 228.804,273.787 218.638,275.287 208.5,277C 185.678,282.186 171.178,273.686 165,251.5C 163.733,241.566 166.067,232.566 172,224.5C 176.133,219.366 180.633,214.532 185.5,210C 192.115,205.719 198.448,201.053 204.5,196C 229.619,192.46 253.285,184.627 275.5,172.5 Z"/></g>
<g><path style="opacity:1" fill="#b7e86a" d="M 61.5,254.5 C 67.1452,263.111 72.3119,272.111 77,281.5C 80.29,288.121 85.4567,292.621 92.5,295C 97.5,296.667 102.5,298.333 107.5,300C 113.054,301.53 115.221,305.03 114,310.5C 109.158,323.851 103.492,336.851 97,349.5C 93.3841,356.94 92.7175,364.607 95,372.5C 103.881,385.139 107.881,399.139 107,414.5C 69.0547,377.578 52.0547,332.578 56,279.5C 56.7753,270.877 58.6087,262.543 61.5,254.5 Z"/></g>
<g><path style="opacity:1" fill="#5fb4fc" d="M 215.5,455.5 C 249.297,444.275 276.63,424.275 297.5,395.5C 304.72,390.788 311.22,385.122 317,378.5C 331.223,361.39 335.223,342.057 329,320.5C 328.333,313.833 328.333,307.167 329,300.5C 330.19,295.787 332.19,291.453 335,287.5C 344.623,276.953 355.79,269.286 368.5,264.5C 374.409,295.522 371.909,325.856 361,355.5C 333.072,418.57 284.572,451.904 215.5,455.5 Z"/></g>
</svg>
